<svg xmlns="http://www.w3.org/2000/svg" width="140" height="30" fill="none"><path fill="#fff" d="M36.577 8.063h4.447l-2.49 11.813c-.458 2.237-1.33 3.518-2.653 4.425a7.908 7.908 0 0 1-4.419 1.056c-2.94 0-5.762-1.232-6.043-4.222h4.474c.141.704.788 1.105 1.773 1.105 1.33 0 1.942-.802 2.217-2.062l.267-1.301h-.099a4.304 4.304 0 0 1-3.088 1.407c-2.59 0-4.644-2.062-4.602-5.08.057-3.518 2.35-7.514 6.199-7.514a3.827 3.827 0 0 1 3.616 1.984h.078l.323-1.611Zm-3.82 8.921c1.71 0 2.66-1.97 2.687-3.666 0-1.132-.443-2.293-1.751-2.293-1.787 0-2.695 1.991-2.723 3.7 0 1.155.443 2.26 1.752 2.26m49.953.379c0 .753-.648 1.055-1.5 1.055-1.406 0-1.877-.703-1.884-1.688h-4.426c-.077 3.672 3.201 4.58 6.114 4.58 3.722 0 6.135-1.611 6.185-4.826 0-2.569-2.189-3.35-4.341-3.849-1.654-.38-2.378-.654-2.372-1.28.008-.627.747-.88 1.471-.88.908 0 1.526.324 1.59 1.154h4.3c-.05-3.068-2.816-3.968-5.63-3.968-3.42 0-6.086 1.555-6.128 4.496 0 2.314 1.562 3.166 3.919 3.77 1.513.402 2.716.528 2.702 1.436Zm32.877-7.394h-.077a3.148 3.148 0 0 0-3.209-2.308c-1.913 0-3.081.95-4.185 2.385h-.078l.408-1.984h-4.475l-2.68 12.819h4.679l1.407-6.916c.323-1.506 1.09-2.561 2.251-2.561 1.161 0 1.316.929 1.077 2.061l-1.548 7.416h4.678l1.408-6.916c.323-1.604 1.09-2.561 2.251-2.561 1.161 0 1.316.88 1.077 2.061l-1.548 7.416h4.678l1.675-7.62c.703-3.215-.373-5.628-3.461-5.628a5.137 5.137 0 0 0-4.328 2.336ZM5.233 20.882h4.834l3.736-17.976H8.976L5.233 20.882Zm14.55-13.199c3.265 0 6.381 1.787 6.332 5.832-.042 4.426-3.053 7.74-7.655 7.74-3.166 0-6.332-1.76-6.275-5.784.077-4.32 3.046-7.788 7.598-7.788Zm-1.189 10.434c2.062 0 2.814-2.99 2.814-4.75 0-1.259-.387-2.49-1.745-2.49-2.04 0-2.736 3.166-2.736 4.798 0 1.31.366 2.442 1.695 2.442M15.414 2.906 14.71 6.5H55.3l.704-3.595h-40.59Zm32.645 4.777c3.265 0 6.382 1.787 6.333 5.832-.043 4.426-3.061 7.74-7.662 7.74-3.166 0-6.332-1.76-6.27-5.784.1-4.32 3.068-7.788 7.6-7.788Zm-1.167 10.434c2.06 0 2.814-2.99 2.814-4.75 0-1.259-.394-2.49-1.752-2.49-2.034 0-2.737 3.166-2.737 4.798 0 1.31.366 2.442 1.703 2.442M57.663 2.906 56.96 6.5h4.671l.704-3.595h-4.672ZM53.92 20.882h4.68l2.68-12.82h-4.707l-2.652 12.82Zm14.93.429a4.018 4.018 0 0 1-3.743-1.963h-.078l-1.407 6.487h-4.735l3.8-17.772h4.446l-.352 1.71a5.187 5.187 0 0 1 4.003-2.111c2.815 0 4.468 2.413 4.419 5.551-.064 3.947-2.11 8.098-6.382 8.098h.029Zm-.183-10.019c-1.808 0-2.92 2.315-2.948 4.095 0 1.238.436 2.617 1.92 2.617 1.935 0 2.73-2.56 2.752-4.27 0-1.161-.338-2.442-1.724-2.442Zm27.052 7.57h.077l-.408 2.034h4.446l2.682-12.82h-4.672l-1.492 7.163c-.302 1.485-1.217 2.266-2.37 2.266-1.155 0-1.408-1.084-1.176-2.216l1.513-7.212h-4.672l-1.654 7.915c-.703 3.447.901 5.305 3.59 5.305a4.798 4.798 0 0 0 4.136-2.448v.014Zm25.096 7.036.703-3.595H66.035l-.703 3.595h55.483Z"/><path fill="#fff" d="M125.845 11.58a.348.348 0 0 1-.307-.242.335.335 0 0 1-.016-.137 4.467 4.467 0 0 0-4.538-4.883.353.353 0 0 1-.249-.6.353.353 0 0 1 .249-.104c.168.011.338.011.507 0A5.401 5.401 0 0 0 126.303.69a.352.352 0 0 1 .351-.323.348.348 0 0 1 .241.122.352.352 0 0 1 .083.258 4.48 4.48 0 0 0 1.173 3.455 4.479 4.479 0 0 0 3.358 1.428.353.353 0 0 1 .249.6.353.353 0 0 1-.249.103 5.424 5.424 0 0 0-5.311 4.925.352.352 0 0 1-.353.324Z"/></svg>