<svg xmlns="http://www.w3.org/2000/svg" width="48" height="48" fill="none"><path fill="#fff" stroke="#fff" stroke-width=".261" d="M12 29.67V12s2.245.167 3.461.857c.751.426 1.63 1.346 2.193 1.988.384.438.576 1.005.576 1.587v9.6c0 .247-.173.46-.414.516-.68.155-2.047.492-2.932.872-1.216.523-2.884 2.25-2.884 2.25Zm8.653-1.821c-1.55-.265-2.543-.467-4.038 0-1.172.366-1.736.836-2.654 1.606-.902.758-1.961 2.249-1.961 2.249s1.623-.831 2.769-.964c1.032-.12 1.646-.025 2.654.214 1.722.409 2.396 1.297 3.922 2.142 1.72.951 2.466 1.936 4.385 2.463 1.517.417 2.478.57 4.038.321 1.787-.284 2.872-.736 4.153-1.927 1-.929 1.464-1.628 1.846-2.892.204-.672.231-1.676.233-2.124a.231.231 0 0 0-.234-.231.244.244 0 0 0-.186.087c-.322.384-1.659 1.911-2.928 2.376-1.097.4-1.825.415-3 .32-1.476-.118-2.203-.66-3.576-1.177-2.185-.822-3.104-2.068-5.423-2.463Z"/><path fill="#fff" stroke="#fff" stroke-width=".261" d="M12 35.88v-2.235c0-.274.143-.529.378-.67l.776-.468.283-.171a3.652 3.652 0 0 1 1.887-.525h.781c.262 0 .522.04.771.116l.781.242c.38.118.745.283 1.083.493l.875.541 4.038 2.677H12Z"/></svg>