<svg xmlns="http://www.w3.org/2000/svg" width="140" height="30" fill="none"><g clip-path="url(#a)"><path fill="#fff" d="M55.33 5.891h-2.932v15.153h8.118v-2.969H55.33V5.891Zm5.466 10.014c0 3.235 1.896 5.385 4.757 5.385 2.843 0 4.739-2.15 4.739-5.385 0-3.236-1.896-5.406-4.739-5.406-2.861 0-4.757 2.17-4.757 5.405Zm2.772-.021c0-1.536.787-2.56 1.985-2.56 1.18 0 1.967 1.024 1.967 2.56 0 1.556-.787 2.58-1.967 2.58-1.198 0-1.985-1.024-1.985-2.58Zm7.167-.144c0 3.093 1.752 5.181 4.238 5.181 1.198 0 2.236-.491 2.754-1.29v1.413c0 1.413-.769 2.355-2.128 2.355-1.216 0-2.056-.655-2.11-1.822h-2.79c.25 2.805 2.146 4.689 4.74 4.689 3.057 0 4.988-2.273 4.988-5.877v-9.583h-2.485l-.143 1.044c-.501-.84-1.556-1.392-2.772-1.392-2.504 0-4.292 2.15-4.292 5.283Zm2.79-.081c0-1.475.858-2.458 1.949-2.458 1.27 0 2.2.963 2.2 2.458s-.913 2.518-2.182 2.518c-1.091 0-1.967-1.023-1.967-2.518Zm7.705.246c0 3.235 1.896 5.385 4.757 5.385 2.843 0 4.739-2.15 4.739-5.385 0-3.236-1.896-5.406-4.739-5.406-2.861 0-4.757 2.17-4.757 5.405Zm2.772-.021c0-1.536.786-2.56 1.985-2.56 1.18 0 1.967 1.024 1.967 2.56 0 1.556-.787 2.58-1.967 2.58-1.199 0-1.985-1.024-1.985-2.58ZM93.1 9.208c.858 0 1.556-.798 1.556-1.801 0-1.004-.698-1.782-1.556-1.782-.876 0-1.574.778-1.574 1.782 0 1.003.698 1.801 1.574 1.801Zm-1.395 11.836h2.772V10.806h-2.772v10.238Zm4.385 4.915h2.719V20.02c.518.779 1.699 1.31 2.933 1.31 2.664 0 4.273-2.333 4.202-5.569-.072-3.297-1.735-5.283-4.22-5.283-1.27 0-2.468.635-2.97 1.577l-.142-1.25H96.09V25.96Zm2.772-10.034c0-1.536.894-2.56 2.182-2.56 1.305 0 2.128 1.045 2.128 2.56 0 1.515-.823 2.56-2.128 2.56-1.288 0-2.182-1.024-2.182-2.56Zm7.375 1.884c.072 2.068 1.503 3.501 3.756 3.501 2.164 0 3.666-1.31 3.666-3.42 0-1.515-.787-2.518-2.254-2.928l-1.591-.45c-.572-.164-.93-.328-.93-.86s.375-.88.93-.88c.626 0 1.037.47 1.02 1.167h2.485c-.072-2.13-1.484-3.461-3.452-3.461-1.984 0-3.468 1.351-3.468 3.4 0 1.371.661 2.497 2.431 3.03l1.574.47c.465.144.661.39.661.738 0 .512-.411.84-1.108.84-.805 0-1.234-.43-1.234-1.147h-2.486Zm11.636 3.501c1.092 0 2.182-.573 2.737-1.413l.179 1.147h2.593V10.806h-2.754v5.324c0 1.535-.393 2.375-1.663 2.375-.984 0-1.628-.512-1.628-2.416v-5.283h-2.754v6.43c0 2.436 1.181 4.074 3.29 4.074Zm9.876-.266v-5.59c0-1.72.805-2.212 1.591-2.212.876 0 1.449.615 1.449 1.884v5.918h2.718v-5.59c0-1.74.787-2.232 1.573-2.232.876 0 1.467.614 1.467 1.904v5.918h2.683v-6.696c0-2.334-1.074-3.89-3.381-3.89-1.287 0-2.342.716-2.807 1.822-.537-1.106-1.467-1.822-2.951-1.822-.983 0-1.895.511-2.432 1.33l-.107-.982h-2.575v10.238h2.772ZM0 15C0 6.716 5.865 0 13.1 0h17.192c7.235 0 13.1 6.716 13.1 15v15H13.099C5.865 30 0 23.284 0 15Z"/><path fill="#CFCFCF" fill-opacity=".85" d="M30.292 5.625H13.1c-4.521 0-8.187 4.197-8.187 9.375s3.666 9.375 8.187 9.375h17.193c4.522 0 8.187-4.197 8.187-9.375s-3.665-9.375-8.187-9.375Z"/><path fill="#000" d="M13.1 19.688c2.26 0 4.093-2.1 4.093-4.688 0-2.589-1.833-4.688-4.094-4.688-2.26 0-4.093 2.1-4.093 4.688 0 2.589 1.833 4.688 4.093 4.688Z"/><path fill="#fff" d="M11.462 14.063c.452 0 .819-.42.819-.938s-.367-.938-.82-.938c-.451 0-.818.42-.818.938s.367.938.819.938Z"/><path fill="#000" d="M31.111 19.688c2.261 0 4.094-2.1 4.094-4.688 0-2.589-1.833-4.688-4.094-4.688-2.26 0-4.093 2.1-4.093 4.688 0 2.589 1.832 4.688 4.093 4.688Z"/><path fill="#fff" d="M29.474 14.063c.452 0 .818-.42.818-.938s-.366-.938-.819-.938c-.452 0-.818.42-.818.938s.366.938.819.938Z"/></g><defs><clipPath id="a"><path fill="#fff" d="M0 0h140v30H0z"/></clipPath></defs></svg>