<svg xmlns="http://www.w3.org/2000/svg" width="48" height="48" fill="none"><path fill="#DDD" fill-rule="evenodd" d="M24.332 15c2.05 0 4.03.794 5.504 2.208a7.573 7.573 0 0 1 2.353 5.33l.012.721a5.076 5.076 0 0 1 2.928 2.018c.691.997.987 2.206.83 3.4a4.913 4.913 0 0 1-1.681 3.088A5.153 5.153 0 0 1 30.923 33H18.462a6.557 6.557 0 0 1-4.294-1.592 6.25 6.25 0 0 1-2.123-3.97 6.18 6.18 0 0 1 1.118-4.344 6.468 6.468 0 0 1 3.796-2.521 7.34 7.34 0 0 1 1.942-3.365 7.629 7.629 0 0 1 2.487-1.636A7.787 7.787 0 0 1 24.332 15Z" clip-rule="evenodd"/><path fill="#fff" d="M24.332 15a7.786 7.786 0 0 0-2.943.572 7.629 7.629 0 0 0-2.489 1.636 7.41 7.41 0 0 0-1.637 2.452 7.261 7.261 0 0 0-.54 2.879 7.573 7.573 0 0 0 2.353 5.331 7.965 7.965 0 0 0 7.141 2.037 4.835 4.835 0 0 1-.269-2.842 4.913 4.913 0 0 1 1.385-2.515 5.107 5.107 0 0 1 2.24-1.271 5.202 5.202 0 0 1 2.593-.028 7.4 7.4 0 0 0 .023-.712 7.573 7.573 0 0 0-2.353-5.33A7.965 7.965 0 0 0 24.332 15Z"/></svg>