<svg xmlns="http://www.w3.org/2000/svg" width="300" height="240" fill="none"><g clip-path="url(#a)"><path stroke="#4D4D4D" stroke-dasharray="2.27 2.27" stroke-width=".378" d="m136.358 187.658-97.393-61.174a.756.756 0 0 1 .01-1.286L167.32 47.452a.756.756 0 0 1 .77-.008L272.918 108.1a.756.756 0 0 1 .011 1.302L142.687 187.72a6.044 6.044 0 0 1-6.329-.062Z"/><path stroke="#4D4D4D" stroke-dasharray="2.27 2.27" stroke-width=".378" d="M130.818 217.229-3.708 131.095a.755.755 0 0 1 .007-1.277L170.108 21.245a.755.755 0 0 1 .788-.008l143.038 85.625a.755.755 0 0 1 .009 1.291l-176.69 109.129a6.043 6.043 0 0 1-6.435-.053Z"/><path stroke="#4D4D4D" stroke-dasharray="2.27 2.27" stroke-width=".378" d="m118.677 245.834-172.64-108.392a.755.755 0 0 1 .011-1.286L170.53.232a.754.754 0 0 1 .769-.008l183.593 106.188a.755.755 0 0 1 .011 1.301L125.005 245.896a6.046 6.046 0 0 1-6.328-.062Z"/><path fill="#1A1A1A" stroke="#B9B9B9" stroke-width=".378" d="M87.037 122.108v-4.437l54.361 32.309a5.666 5.666 0 0 0 5.712.045l73.275-41.986v4.014a1.89 1.89 0 0 1-.937 1.632l-73.271 42.711a3.777 3.777 0 0 1-3.856-.031l-54.555-32.964a1.511 1.511 0 0 1-.73-1.293Z"/><path fill="#494949" stroke="#B9B9B9" stroke-width=".378" d="M87.037 117.25v-4.456l54.905 33.84c1.416.873 3.197.9 4.639.071l73.804-42.444v3.458a1.89 1.89 0 0 1-.947 1.638l-73.268 42.147a3.776 3.776 0 0 1-3.835-.04l-54.568-32.92a1.511 1.511 0 0 1-.73-1.294Z"/><path fill="#999" stroke="#B9B9B9" stroke-width=".378" d="m143.026 147.193-54.923-32.26c-1.493-.876-1.491-3.035.003-3.91l73.622-43.105a2.266 2.266 0 0 1 2.306.01L219.7 101.14c1.489.889 1.47 3.052-.035 3.914l-73.606 42.155a3.022 3.022 0 0 1-3.033-.017Z"/><path fill="#3A3A3A" stroke="#B9B9B9" stroke-width=".378" d="m140.862 141.757-48.195-28.512a.756.756 0 0 1-.001-1.3l69.156-41.077a.755.755 0 0 1 .766-.003l52.512 30.63a.756.756 0 0 1-.005 1.308l-68.153 38.998a6.044 6.044 0 0 1-6.08-.044Z"/><ellipse cx="152.955" cy="106.528" fill="url(#b)" rx="30.787" ry="17.377"/><path stroke="#fff" stroke-opacity=".4" stroke-width=".378" d="M152.955 89.34c8.475 0 16.139 1.939 21.677 5.065 5.544 3.129 8.922 7.422 8.922 12.123 0 4.7-3.378 8.994-8.922 12.123-5.538 3.125-13.202 5.064-21.677 5.064s-16.138-1.939-21.676-5.064c-5.544-3.129-8.922-7.423-8.922-12.123 0-4.701 3.378-8.994 8.922-12.123 5.538-3.126 13.201-5.066 21.676-5.066Z"/><ellipse cx="153.333" cy="105.205" fill="url(#c)" rx="20.21" ry="11.144"/><path stroke="#fff" stroke-opacity=".4" stroke-width=".378" d="M153.333 94.25c5.555 0 10.575 1.243 14.199 3.241 3.631 2.002 5.822 4.737 5.823 7.714 0 2.977-2.192 5.713-5.823 7.715-3.624 1.998-8.644 3.24-14.199 3.24s-10.575-1.242-14.199-3.24c-3.631-2.002-5.822-4.738-5.822-7.715 0-2.977 2.191-5.712 5.822-7.714 3.624-1.998 8.644-3.24 14.199-3.24Z"/><path fill="url(#d)" stroke="#B9B9B9" stroke-width=".378" d="m134.7 46.086-6.488 2.726s5.658 3.53 9.633 3.309c4.217-.236 9.633-4.867 9.633-4.867s-4.083.653-6.684.39c-2.445-.248-6.094-1.558-6.094-1.558Z"/><path fill="url(#e)" stroke="#B9B9B9" stroke-width=".378" d="m154.053 44.032-6.29 3.23a.37.37 0 0 0-.187.447c.593 1.78 3.79 11.032 7.835 15.943 5.006 6.079 12.381 6.404 13.155 6.421a.33.33 0 0 0 .132-.025l6.734-2.618s-9.822-.19-15.488-9.633c-2.616-4.36-4.814-11.67-5.352-13.534a.379.379 0 0 0-.539-.23Z"/><path fill="url(#f)" stroke="#B9B9B9" stroke-width=".378" d="M132.557 80.273c-5.667-14.732-4.534-31.164-4.534-31.164s5.647 3.185 9.633 3.021c4.253-.174 9.633-4.721 9.633-4.721s2.644 7.933 6.611 14.732c3.966 6.8 14.543 8.31 14.543 8.31s0 13.411-2.833 20.966c-3.966 10.578-11.71 15.111-14.543 14.355-5.469-1.458-12.844-10.766-18.51-25.499Z"/><path fill="url(#g)" stroke="#B9B9B9" stroke-width=".378" d="m175.243 67.807-6.54 2.617s0 8.035-1.868 17.191c-1.869 9.157-8.969 15.324-8.969 15.324s6.207-1.756 9.903-6.167c3.697-4.41 3.592-4.222 5.419-9.904 1.826-5.682 2.055-19.06 2.055-19.06Z"/><path fill="url(#h)" stroke="#B9B9B9" stroke-width=".378" d="M136.883 61.183c-3.956-.376-6.404-1.692-6.404-1.692l2.072-1.316s3.599 1.405 6.027 1.692c3.228.38 7.534-.94 8.288-.752.753.188 2.825 7.331 6.781 10.34l7.725 5.874a.64.64 0 0 1 .244.367c.138.615.438 2.51-.058 5.978-.619 4.323-.565 3.947-1.507 6.58-.942 2.631-1.695 5.451-3.202 7.143-1.507 1.692-3.391 2.82-3.391 2.82s.942-.752 2.261-3.948c1.318-3.196.376-.564 2.26-6.58 1.54-4.918 1.569-9.334 1.528-10.781a.766.766 0 0 0-.486-.679c-1.329-.55-5.298-2.431-9.141-6.587-4.709-5.091-4.709-9.023-5.463-9.211-.753-.188-3.579 1.128-7.534.752Z"/><path fill="url(#i)" stroke="#B9B9B9" stroke-width=".378" d="M134.256 78.196c-1.699-4.156-3.777-18.51-3.777-18.51s1.889.944 6.799 1.322c3.771.29 5.983-.31 6.806-.605a.426.426 0 0 1 .532.216c.539 1.207 2.38 5.161 4.751 8.322 2.568 3.424 8.863 6.694 10.016 7.275a.358.358 0 0 1 .201.293c.057.776.163 3.803-.962 9.43-1.322 6.612-3.778 11.145-5.289 12.278a31.33 31.33 0 0 1-2.762 1.819.725.725 0 0 1-.843-.075c-1.324-1.127-5.633-4.87-7.539-7.41-2.266-3.023-6.233-10.2-7.933-14.355Z"/><path stroke="#444" stroke-linecap="round" stroke-linejoin="round" stroke-width="1.133" d="M140.844 74.26c.59-.497 1.402-.752 2.349-.74.947.013 1.994.293 3.03.811a10.397 10.397 0 0 1 2.852 2.132c.831.877 1.476 1.861 1.866 2.848.842 2.128 1.25 4.136 1.266 5.957m-12.264-9.553c-.225.859-.118 1.889.308 2.96.409 1.03.524 2.022.331 2.86m2.444 2.678c.742-1.426.705-3.344-.103-5.379-.286-.724-.28-1.402.019-1.885.298-.482.864-.73 1.573-.688.709.043 1.502.37 2.206.913.704.542 1.261 1.254 1.548 1.978.152.384.287.764.405 1.138m-3.078-1.297c1.035 2.606 1.122 5.072.245 6.951m3.403-3.067c.161 1.359.081 2.634-.235 3.778"/></g><defs><linearGradient id="b" x1="152.955" x2="152.955" y1="89.151" y2="123.904" gradientUnits="userSpaceOnUse"><stop stop-color="#D9D9D9"/><stop offset="1" stop-color="#737373"/></linearGradient><linearGradient id="c" x1="153.333" x2="153.333" y1="94.062" y2="116.349" gradientUnits="userSpaceOnUse"><stop stop-color="#fff"/><stop offset="1" stop-color="#E6E6E6"/></linearGradient><linearGradient id="d" x1="128.212" x2="147.478" y1="49.108" y2="49.108" gradientUnits="userSpaceOnUse"><stop offset=".248" stop-color="#797979"/><stop offset=".872" stop-color="#DFDFDF"/></linearGradient><linearGradient id="e" x1="161.455" x2="161.455" y1="43.82" y2="70.074" gradientUnits="userSpaceOnUse"><stop stop-color="#222"/><stop offset="1" stop-color="#888"/></linearGradient><linearGradient id="f" x1="148.187" x2="148.187" y1="47.409" y2="105.853" gradientUnits="userSpaceOnUse"><stop stop-color="#A1A1A1"/><stop offset="1" stop-color="#232323"/></linearGradient><linearGradient id="g" x1="166.555" x2="166.555" y1="67.807" y2="102.939" gradientUnits="userSpaceOnUse"><stop stop-color="#787878"/><stop offset="1" stop-color="#272727"/></linearGradient><linearGradient id="h" x1="146.156" x2="146.156" y1="58.175" y2="98.217" gradientUnits="userSpaceOnUse"><stop stop-color="#595959"/><stop offset=".375" stop-color="#272727"/></linearGradient><linearGradient id="i" x1="145.047" x2="145.047" y1="59.686" y2="100.295" gradientUnits="userSpaceOnUse"><stop stop-color="#fff"/><stop offset="1" stop-color="#C5C5C5"/></linearGradient><clipPath id="a"><path fill="#fff" d="M0 0h300v240H0z"/></clipPath></defs></svg>