<svg xmlns="http://www.w3.org/2000/svg" width="48" height="48" fill="none"><path fill="#fff" d="m27.806 12.453.557 1.713a3.52 3.52 0 0 0 2.237 2.235l1.716.557.033.01a.676.676 0 0 1 0 1.277l-1.714.556a3.521 3.521 0 0 0-2.239 2.236l-.557 1.712a.678.678 0 0 1-1.277 0l-.557-1.712a3.521 3.521 0 0 0-2.239-2.245l-1.715-.557a.677.677 0 0 1 0-1.277l1.715-.557a3.52 3.52 0 0 0 2.204-2.235l.557-1.712a.677.677 0 0 1 1.279-.001Zm7.85 12.69-1.225-.396a2.528 2.528 0 0 1-1.6-1.599l-.397-1.222a.483.483 0 0 0-.912 0l-.4 1.223a2.527 2.527 0 0 1-1.573 1.598l-1.225.397a.485.485 0 0 0 0 .912l1.224.398a2.53 2.53 0 0 1 1.6 1.603l.398 1.223a.484.484 0 0 0 .912 0l.399-1.223a2.527 2.527 0 0 1 1.598-1.598l1.225-.397a.485.485 0 0 0 0-.912l-.024-.006Zm-4.845 5.692c.35.238.764.366 1.194.368.139 0 .275-.01.41-.03a11.203 11.203 0 1 1-18.279-12.95 11.202 11.202 0 0 1 10.315-4.553 1.921 1.921 0 0 1-.464.752c-.208.208-.464.384-.72.464l-1.746.56a2.31 2.31 0 0 0-1.105.835A2.247 2.247 0 0 0 20 17.595c0 .482.144.93.416 1.314s.656.69 1.136.85l1.7.56c.24.08.464.209.752.465.176.176.32.384.464.753l.287.864a.8.8 0 0 0-.754.8v3.2a.8.8 0 0 0 1.6 0v-2.256c.083.085.176.166.277.245.224.16.464.272.72.336a2.082 2.082 0 0 0-.192.882c0 .432.128.85.384 1.203.258.352.61.608 1.042.768l1.218.4c.128.048.256.128.352.224a.843.843 0 0 1 .224.353l.416 1.284c.16.4.417.736.77.991m-9.212-9.23a.8.8 0 0 0-1.6 0v6.4a.8.8 0 1 0 1.6 0v-6.4Zm-4.801 4.8a.8.8 0 0 0 .8-.8v-1.6a.8.8 0 0 0-1.6 0v1.6a.8.8 0 0 0 .8.8Z"/></svg>