<svg xmlns="http://www.w3.org/2000/svg" width="48" height="48" fill="none"><path fill="#000" stroke="#fff" stroke-width="4" d="M34.435 12h-20.87a1.6 1.6 0 0 0-1.107.44A1.47 1.47 0 0 0 12 13.5v7c0 6.395 3.226 10.265 5.93 12.388 2.923 2.29 5.812 3.062 5.933 3.095.09.023.184.023.274 0 .121-.033 3.01-.805 5.932-3.095C32.774 30.763 36 26.895 36 20.5v-7c0-.398-.165-.78-.458-1.06a1.6 1.6 0 0 0-1.107-.44Zm.521 8.5c0 4.805-1.856 8.704-5.516 11.589A17.505 17.505 0 0 1 24 34.978a17.475 17.475 0 0 1-5.44-2.89c-3.66-2.884-5.516-6.783-5.516-11.588v-7a.49.49 0 0 1 .152-.354.534.534 0 0 1 .37-.146h20.869a.54.54 0 0 1 .369.146.49.49 0 0 1 .152.354v7Z"/></svg>