<svg xmlns="http://www.w3.org/2000/svg" width="48" height="48" fill="none"><path fill="#fff" d="M14 17.625 23.811 12 27 14l-13 7.5v-3.875Zm0 11.25V25.5l10.566-6-.066 3-7 4v5L14 28.875Zm6.415 4.5v-4.5l4.151-2.625-.066 5.25 9.5-6v4.125L24.566 36l-4.15-2.625ZM34 18l-4.15-2.25v7.75L34 21v-3Z"/><path stroke="#fff" d="M14 17.625 23.811 12 27 14l-13 7.5v-3.875Zm0 11.25V25.5l10.566-6-.066 3-7 4v5L14 28.875Zm6.415 4.5v-4.5l4.151-2.625-.066 5.25 9.5-6v4.125L24.566 36l-4.15-2.625ZM34 18l-4.15-2.25v7.75L34 21v-3Z"/></svg>