<svg xmlns="http://www.w3.org/2000/svg" width="300" height="240" fill="none"><path stroke="#575757" stroke-dasharray="1.8 1.8" stroke-width=".301" d="M150.286 39.003c.605.002 1.208.007 1.811.015l-.001.149c.602.007 1.203.017 1.803.03l.002-.151c.601.012 1.2.027 1.798.044l-.003.15c.604.016 1.208.036 1.81.058l.004-.15c.603.022 1.206.047 1.807.074l-.005.15c.6.027 1.2.056 1.798.088l.007-.15c.601.031 1.201.066 1.799.103l-.009.15c.604.036 1.207.076 1.808.118l.01-.15c.601.042 1.202.086 1.801.133l-.01.15c.598.046 1.196.095 1.792.147l.011-.15c.602.053 1.203.107 1.802.164l-.014.149c.602.057 1.202.117 1.8.179l.015-.15c.599.062 1.197.126 1.793.193l-.017.15c.597.066 1.193.135 1.786.207l.018-.148c.601.072 1.201.148 1.8.225l-.019.149c.598.077 1.195.157 1.789.239l.02-.148c.595.083 1.189.167 1.781.254l-.02.149c.597.088 1.193.178 1.787.271l.022-.148a196 196 0 0 1 1.787.287l-.024.148c.593.099 1.185.2 1.775.302l.026-.147c.592.103 1.183.21 1.772.318l-.026.148c.595.11 1.189.221 1.781.336l.027-.147c.592.115 1.183.231 1.771.35l-.029.148c.588.12 1.174.241 1.758.365l.031-.146c.592.126 1.183.254 1.771.385l-.031.147c.589.131 1.176.264 1.761.4l.034-.145c.585.136 1.169.275 1.75.416l-.034.145c.586.143 1.17.288 1.752.435l.037-.145c.586.148 1.171.298 1.753.452l-.038.145c.582.153 1.162.31 1.739.468l.039-.146c.581.16 1.159.323 1.735.487l-.04.143c.583.166 1.163.335 1.74.506l.042-.143c.579.17 1.155.343 1.728.52l-.044.144c.573.176 1.144.355 1.713.536l.045-.144c.578.185 1.154.372 1.727.562l-.046.142c.573.19 1.142.381 1.709.576l.048-.142c.568.194 1.133.39 1.695.59l-.049.141c.572.203 1.141.409 1.708.617l.05-.141c.568.208 1.132.42 1.693.633l-.053.14c.561.212 1.119.428 1.673.646l.054-.139c.565.223 1.127.447 1.685.674l-.055.139c.559.227 1.115.458 1.668.69l.057-.137c.553.232 1.104.467 1.651.705l-.06.137c.556.242 1.11.487 1.659.735l.061-.138c.551.248 1.099.5 1.643.753l-.062.136a142.5 142.5 0 0 1 1.62.766l.064-.136c.548.263 1.092.53 1.632.8l-.066.133c.54.269 1.077.54 1.61.814l.067-.133c.534.274 1.064.55 1.589.83l-.069.133c.537.285 1.07.573 1.599.864l.071-.131c.529.29 1.055.583 1.575.879l-.074.132c.522.297 1.041.596 1.555.898l.075-.129c.524.309 1.043.62 1.558.934l-.077.127c.515.313 1.025.629 1.53.947l.079-.126c.51.322 1.016.648 1.517.975l-.081.125c.508.331 1.011.665 1.508 1.002l.083-.125c.498.337.991.678 1.479 1.02l-.084.122c.496.348.987.699 1.472 1.052l.087-.121c.489.356.973.716 1.451 1.077l-.089.12c.479.361.953.725 1.42 1.092l.092-.118c.479.376.952.755 1.419 1.137l-.094.115c.467.38.928.764 1.382 1.15l.096-.114c.461.392.917.785 1.366 1.183l-.099.112c.454.4.9.805 1.34 1.212l.1-.11c.442.407.878.816 1.307 1.229l-.104.108c.438.422.869.847 1.293 1.275l.104-.106c.425.428.843.859 1.253 1.292l-.107.103c.416.439.824.88 1.226 1.325l.111-.1v-.002c.405.45.802.903 1.192 1.358l-.111.097c.392.457.775.916 1.151 1.377l.115-.094c.384.47.76.944 1.127 1.42l-.118.092c.367.476.726.954 1.076 1.434l.12-.088c.357.491.705.985 1.046 1.482l-.122.084c.341.496.672.996.995 1.498l.124-.081c.327.509.646 1.02.955 1.535h.001l-.129.077c.31.517.612 1.036.903 1.558l.13-.073c.294.527.577 1.057.852 1.59l-.131.067c.276.537.543 1.075.799 1.617l.133-.063c.258.544.506 1.09.743 1.64l-.135.058c.239.554.468 1.11.686 1.67l.138-.055c.219.56.428 1.123.625 1.69l-.141.048c.199.569.387 1.141.563 1.715l.142-.044c.177.575.34 1.153.495 1.732l-.143.039c.154.581.297 1.164.429 1.749l.144-.033c.132.588.252 1.178.361 1.77l-.146.026c.108.59.205 1.182.289 1.775l.146-.021c.084.596.157 1.194.218 1.794l-.146.015c.06.595.109 1.192.145 1.792l.149-.01c.036.6.061 1.202.073 1.805l-.148.003a45.34 45.34 0 0 1 0 1.807l.148.002a45.138 45.138 0 0 1-.073 1.805l-.149-.009a44.593 44.593 0 0 1-.145 1.792l.146.014c-.06.6-.133 1.198-.217 1.793l-.147-.02a44.022 44.022 0 0 1-.289 1.775l.146.027a46.517 46.517 0 0 1-.361 1.768l-.144-.032a48.438 48.438 0 0 1-.429 1.749l.143.038c-.154.58-.318 1.158-.495 1.734l-.142-.044a46.971 46.971 0 0 1-.563 1.714l.141.048a48.387 48.387 0 0 1-.625 1.69l-.138-.054a50.903 50.903 0 0 1-.686 1.669l.135.058a50.993 50.993 0 0 1-.743 1.64l-.133-.062a53.78 53.78 0 0 1-.799 1.616l.131.068a55.295 55.295 0 0 1-.852 1.588l-.13-.072a57.107 57.107 0 0 1-.903 1.559l.128.077a60.78 60.78 0 0 1-.955 1.535l-.124-.08c-.323.501-.654 1-.995 1.497l.123.083c-.341.496-.69.99-1.047 1.481l-.12-.087c-.35.481-.708.959-1.075 1.434l.117.091c-.367.476-.743.95-1.127 1.422l-.115-.095c-.376.461-.759.921-1.151 1.377l.111.097c-.39.454-.787.908-1.192 1.357l-.111-.101c-.402.445-.81.887-1.226 1.326l.107.102c-.41.433-.828.863-1.253 1.291l-.104-.103c-.424.427-.855.851-1.293 1.273l.104.107c-.429.413-.865.822-1.307 1.23l-.1-.108c-.44.406-.886.81-1.34 1.211l.099.111c-.449.397-.905.791-1.366 1.182l-.096-.112a88.62 88.62 0 0 1-1.382 1.15l.094.114c-.467.381-.94.761-1.419 1.137l-.092-.118c-.467.367-.941.732-1.42 1.094l.089.117c-.478.362-.962.721-1.451 1.077l-.087-.12a96.8 96.8 0 0 1-1.472 1.053l.083.121c-.487.342-.98.683-1.478 1.02l-.083-.123c-.497.336-1 .67-1.508 1.002l.081.124c-.501.327-1.007.652-1.517.974l-.079-.126c-.505.319-1.015.634-1.53.947l.077.127a112.5 112.5 0 0 1-1.558.933l-.075-.128c-.514.302-1.033.602-1.555.9l.074.128c-.521.297-1.046.59-1.575.881l-.071-.131c-.529.291-1.062.579-1.599.865l.07.132c-.526.279-1.056.555-1.59.83l-.067-.132c-.533.274-1.07.544-1.61.813l.066.134c-.54.269-1.084.535-1.632.799l-.064-.135c-.536.258-1.077.513-1.62.766l.062.135c-.544.253-1.092.504-1.643.752l-.061-.136c-.549.247-1.103.492-1.659.734l.06.137c-.547.238-1.098.472-1.651.705l-.057-.137c-.553.233-1.109.463-1.668.691l.055.138c-.558.228-1.12.452-1.685.674l-.054-.139c-.554.218-1.112.434-1.673.647l.053.139c-.561.213-1.125.424-1.693.632l-.05-.139c-.567.208-1.136.413-1.708.616l.049.142c-.562.199-1.127.394-1.695.588l-.048-.139c-.567.194-1.136.386-1.709.575l.046.141c-.573.189-1.149.377-1.727.561l-.045-.142c-.569.181-1.139.36-1.713.537l.043.142c-.573.176-1.149.349-1.727.52l-.042-.143c-.577.171-1.157.34-1.74.506l.04.143c-.576.164-1.154.327-1.735.486l-.039-.145c-.577.159-1.157.315-1.739.468l.038.145c-.582.153-1.167.303-1.753.452l-.037-.145c-.582.148-1.166.293-1.752.435l.034.144c-.581.142-1.165.28-1.75.416l-.034-.144c-.585.136-1.172.27-1.761.401l.031.146c-.588.131-1.179.259-1.771.385l-.031-.146c-.584.124-1.17.247-1.758.366l.029.146c-.588.119-1.179.236-1.771.35l-.027-.145c-.592.114-1.186.226-1.781.336l.026.146c-.589.109-1.18.215-1.772.319l-.026-.147c-.589.103-1.181.204-1.774.302l.023.147c-.594.099-1.189.194-1.787.287l-.022-.146c-.594.093-1.19.182-1.787.271l.02.147c-.592.087-1.185.171-1.78.254l-.021-.147c-.594.083-1.191.162-1.789.24l.019.147c-.599.078-1.199.154-1.8.227l-.018-.149c-.593.072-1.188.141-1.785.208l.016.149c-.596.067-1.194.131-1.793.193l-.015-.148c-.598.062-1.198.121-1.8.178l.014.148c-.599.057-1.2.111-1.802.163l-.011-.148c-.596.052-1.194.101-1.792.148l.01.147c-.599.047-1.2.091-1.801.133l-.01-.147c-.601.042-1.204.081-1.808.118l.009.148c-.598.037-1.198.071-1.799.103l-.007-.149c-.598.032-1.198.061-1.798.088l.005.149c-.601.027-1.204.051-1.807.073l-.004-.148c-.602.021-1.206.041-1.81.058l.003.149c-.598.016-1.197.031-1.798.043l-.002-.148c-.6.012-1.201.021-1.803.028l.001.149c-.603.007-1.206.012-1.811.014v-.148l-.906.002-.907-.002-.001.148c-.605-.002-1.208-.007-1.811-.014l.002-.149c-.602-.007-1.204-.016-1.804-.028l-.003.148c-.6-.012-1.199-.027-1.797-.043l.003-.149c-.603-.017-1.206-.037-1.808-.058l-.006.148c-.604-.022-1.206-.046-1.808-.073l.007-.149c-.6-.027-1.2-.056-1.799-.088l-.007.149c-.601-.032-1.201-.066-1.799-.103l.01-.148c-.604-.037-1.207-.076-1.808-.118l-.011.147c-.601-.042-1.202-.086-1.801-.133l.012-.147a206.3 206.3 0 0 1-1.793-.148l-.013.148a211.02 211.02 0 0 1-1.8-.163l.013-.148c-.601-.057-1.201-.116-1.799-.178l-.016.148c-.599-.062-1.197-.125-1.793-.192h.001l.017-.15c-.597-.067-1.193-.136-1.787-.208l-.018.149c-.602-.073-1.202-.149-1.8-.227l.02-.147c-.598-.078-1.195-.157-1.789-.24l-.021.147c-.595-.083-1.189-.167-1.781-.254l.022-.147c-.597-.088-1.194-.178-1.788-.271l-.022.146c-.598-.093-1.193-.188-1.787-.287l.024-.147c-.593-.098-1.185-.199-1.775-.302l-.027.147c-.592-.104-1.183-.21-1.772-.319l.027-.146c-.595-.11-1.189-.222-1.781-.336l-.028.145a184.92 184.92 0 0 1-1.771-.35l.029-.146c-.587-.119-1.173-.242-1.757-.366l-.031.147c-.593-.127-1.183-.255-1.772-.386l.032-.146c-.589-.131-1.177-.265-1.762-.401l-.034.144c-.585-.136-1.169-.274-1.75-.416l.035-.144c-.586-.142-1.17-.287-1.753-.435l-.037.145a218.6 218.6 0 0 1-1.753-.452l.038-.145c-.581-.153-1.16-.309-1.738-.468l-.04.144c-.58-.159-1.16-.321-1.735-.485l.04-.143c-.582-.166-1.162-.335-1.74-.506l-.043.143a182.31 182.31 0 0 1-1.726-.52l.044-.142c-.574-.177-1.145-.356-1.713-.537l-.046.142a166.3 166.3 0 0 1-1.727-.561l.046-.141c-.572-.189-1.142-.381-1.708-.575l-.05.139a168.44 168.44 0 0 1-1.694-.588l.05-.141a171.54 171.54 0 0 1-1.707-.617l-.052.139c-.567-.208-1.13-.419-1.692-.632l.053-.139c-.56-.213-1.118-.429-1.672-.647l-.056.139a138.21 138.21 0 0 1-1.685-.674l.056-.138a152.05 152.05 0 0 1-1.668-.691l-.058.137c-.554-.233-1.104-.468-1.65-.706l.06-.136c-.556-.242-1.11-.487-1.658-.734l-.063.135c-.551-.248-1.099-.498-1.642-.751l.063-.135c-.543-.253-1.084-.508-1.62-.766l-.067.135c-.547-.263-1.09-.53-1.63-.799l.066-.134c-.54-.268-1.078-.539-1.61-.813l-.069.132a148.69 148.69 0 0 1-1.589-.83l.07-.132c-.536-.286-1.07-.574-1.598-.865l-.072.13c-.53-.29-1.054-.584-1.574-.88l.074-.128c-.523-.298-1.041-.598-1.555-.9l-.076.128c-.524-.308-1.044-.619-1.559-.933l.078-.127a118.46 118.46 0 0 1-1.528-.947l-.08.126c-.51-.322-1.017-.647-1.518-.974l.082-.124a123.22 123.22 0 0 1-1.508-1.002l-.084.123c-.498-.337-.99-.678-1.479-1.02l.086-.121a99.004 99.004 0 0 1-1.473-1.053l-.088.12c-.49-.356-.973-.715-1.451-1.077l.09-.117a99.2 99.2 0 0 1-1.42-1.094l-.093.117a97.065 97.065 0 0 1-1.42-1.135l.096-.115a93.433 93.433 0 0 1-1.381-1.15l-.098.112a85.919 85.919 0 0 1-1.365-1.182l.1-.111a83.114 83.114 0 0 1-1.341-1.211l-.101.108a84.596 84.596 0 0 1-1.307-1.23l.105-.107a77.91 77.91 0 0 1-1.293-1.273l-.106.103a78.963 78.963 0 0 1-1.253-1.292l.109-.101a73.1 73.1 0 0 1-1.226-1.326l-.112.101a73.906 73.906 0 0 1-1.193-1.357l.114-.097a70.83 70.83 0 0 1-1.152-1.377l-.116.094c-.384-.471-.76-.945-1.128-1.421l.12-.091a63.137 63.137 0 0 1-1.076-1.434l-.12.088a63.536 63.536 0 0 1-1.047-1.482l.122-.083c-.34-.497-.671-.996-.994-1.497l-.125.08a59.378 59.378 0 0 1-.955-1.535l.129-.077a57.08 57.08 0 0 1-.902-1.559l-.131.072a55.403 55.403 0 0 1-.853-1.588l.133-.068a53.331 53.331 0 0 1-.8-1.616l-.134.062a51.837 51.837 0 0 1-.744-1.639l.137-.059c-.24-.554-.468-1.11-.686-1.669l-.14.054a49.003 49.003 0 0 1-.624-1.69l.142-.048a48.333 48.333 0 0 1-.562-1.714l-.145.045a47.534 47.534 0 0 1-.495-1.735l.145-.038a46.415 46.415 0 0 1-.429-1.749l-.145.032a45.93 45.93 0 0 1-.36-1.768l.146-.027a44.561 44.561 0 0 1-.29-1.775l-.147.02a44.52 44.52 0 0 1-.218-1.793l.148-.014c-.06-.596-.11-1.193-.146-1.792l-.149.009c-.036-.6-.061-1.202-.073-1.805l.15-.002-.01-.903c0-.302.003-.603.01-.904l-.15-.003c.012-.603.037-1.204.073-1.804l.15.009c.036-.6.084-1.197.145-1.792l-.148-.015c.061-.6.133-1.197.218-1.793l.148.02c.084-.593.18-1.185.289-1.775l-.147-.026a45.84 45.84 0 0 1 .36-1.77l.146.033a44.56 44.56 0 0 1 .429-1.749l-.144-.039c.154-.579.318-1.157.494-1.732l.145.044c.176-.574.363-1.145.562-1.714l-.142-.05a49.42 49.42 0 0 1 .625-1.69l.139.055c.218-.558.447-1.115.686-1.669l-.136-.06a56.86 56.86 0 0 1 .742-1.638l.135.064c.257-.542.523-1.081.8-1.618l-.133-.068a56.75 56.75 0 0 1 .853-1.589l.13.073a56.76 56.76 0 0 1 .903-1.558l-.129-.077a59.04 59.04 0 0 1 .955-1.535l.125.08c.322-.5.654-1 .994-1.496l-.123-.084c.34-.497.69-.992 1.047-1.484l.121.089c.35-.48.709-.958 1.076-1.434l-.12-.091a67.99 67.99 0 0 1 1.128-1.42l.116.093c.376-.461.76-.92 1.152-1.377l-.114-.097c.39-.455.787-.908 1.193-1.358v.001l.112.101c.401-.444.81-.886 1.226-1.325l-.109-.103c.41-.433.829-.864 1.253-1.292l.106.106a82.09 82.09 0 0 1 1.293-1.275l-.105-.108c.429-.413.865-.822 1.307-1.23l.1.11c.44-.406.888-.81 1.341-1.21l-.1-.113c.45-.397.905-.791 1.366-1.183l.098.114c.454-.386.914-.77 1.38-1.15l-.094-.115c.467-.382.94-.76 1.419-1.136l.093.117c.467-.367.94-.731 1.42-1.093l-.09-.119c.478-.361.961-.72 1.45-1.077l.089.121c.485-.353.977-.704 1.473-1.052l-.087-.122c.489-.342.981-.683 1.48-1.02l.084.125c.497-.337 1-.67 1.508-1.002l-.082-.125a112.51 112.51 0 0 1 1.518-.975l.08.126a117.37 117.37 0 0 1 1.529-.947l-.079-.127a120.42 120.42 0 0 1 1.559-.934l.076.13a121.78 121.78 0 0 1 1.555-.9l-.074-.13c.52-.296 1.046-.588 1.575-.879l.071.13c.529-.29 1.062-.579 1.599-.864l-.07-.133c.525-.28 1.055-.556 1.588-.83l.069.133c.532-.273 1.07-.545 1.61-.814l-.066-.134c.54-.268 1.083-.536 1.63-.8l.002.002.065.135a140.75 140.75 0 0 1 1.619-.766l-.063-.136c.544-.253 1.092-.504 1.643-.752l.063.137c.549-.248 1.102-.493 1.658-.735l-.06-.137c.546-.237 1.096-.473 1.65-.706l.058.138c.553-.232 1.109-.463 1.668-.69l-.056-.139c.558-.227 1.12-.451 1.685-.674l.056.139c.554-.218 1.111-.434 1.672-.647l-.053-.14c.56-.212 1.124-.424 1.691-.632l.053.14c.566-.207 1.135-.413 1.707-.616l-.05-.141c.562-.2 1.127-.396 1.695-.59l.049.142a155.46 155.46 0 0 1 1.709-.576l-.047-.142c.573-.19 1.148-.377 1.727-.562l.046.144c.568-.181 1.14-.36 1.713-.536l-.044-.144h-.001c.573-.177 1.15-.35 1.727-.52l.043.143c.578-.17 1.158-.34 1.74-.506l-.04-.143c.576-.164 1.154-.326 1.735-.486l.04.145a181.45 181.45 0 0 1 1.738-.468l-.038-.145c.582-.154 1.167-.304 1.753-.453l.037.146c.582-.147 1.167-.292 1.753-.435l-.035-.145c.581-.141 1.165-.28 1.75-.416l.034.145c.585-.136 1.173-.269 1.762-.4l-.032-.147c.589-.132 1.179-.26 1.772-.386l.031.147c.584-.124 1.17-.246 1.757-.365l-.029-.147c.588-.12 1.178-.236 1.771-.351l.028.147c.592-.115 1.186-.227 1.781-.336l-.027-.148c.589-.108 1.18-.215 1.772-.318l.027.147a200.01 200.01 0 0 1 1.775-.302l-.024-.148a196 196 0 0 1 1.787-.287l.022.148c.594-.093 1.191-.183 1.788-.271l-.022-.149c.592-.087 1.186-.171 1.781-.254l.021.148a241.54 241.54 0 0 1 1.789-.24l-.02-.148a200.96 200.96 0 0 1 1.8-.225l.018.148c.594-.072 1.19-.141 1.787-.208l-.018-.15c.596-.066 1.194-.13 1.793-.192l.016.15c.598-.062 1.198-.122 1.799-.179l-.014-.15c.599-.056 1.2-.11 1.801-.162l.013.149c.596-.052 1.194-.1 1.792-.148l-.011-.149c.599-.047 1.2-.09 1.801-.133l.011.15c.601-.042 1.204-.081 1.808-.118l-.01-.15a213.73 213.73 0 0 1 1.799-.103l.007.15c.599-.032 1.199-.061 1.799-.088l-.007-.15c.602-.027 1.204-.052 1.808-.074l.006.15a221.26 221.26 0 0 1 1.808-.059l-.003-.15a222.19 222.19 0 0 1 1.797-.043l.003.15c.6-.012 1.202-.022 1.804-.029l-.002-.15c.603-.007 1.206-.012 1.811-.014l.001.15a228.117 228.117 0 0 1 1.813 0v-.15Z"/><path stroke="#575757" stroke-dasharray="1.8 1.8" stroke-width=".301" d="M225.603 107.373c.14.579.26 1.161.361 1.747l-.146.025c.1.583.181 1.169.242 1.758l.147-.014c.061.589.103 1.182.123 1.778l-.148.006a26.313 26.313 0 0 1 0 1.779l.148.004c-.02.596-.062 1.189-.123 1.779l-.147-.014a26.492 26.492 0 0 1-.242 1.757l.146.026a26.788 26.788 0 0 1-.361 1.747l-.145-.034a27.937 27.937 0 0 1-.473 1.709l.142.044a27.785 27.785 0 0 1-.586 1.685l-.138-.053c-.211.551-.44 1.098-.686 1.641l.136.061a31.153 31.153 0 0 1-.783 1.603l-.132-.068c-.273.52-.561 1.036-.865 1.548l.127.075a34.84 34.84 0 0 1-.952 1.51l-.124-.082c-.326.489-.668.975-1.024 1.457l.119.088c-.35.474-.714.944-1.092 1.409l-.116-.094c-.37.455-.753.907-1.149 1.353l.112.099a44.8 44.8 0 0 1-1.213 1.314l-.107-.104c-.408.424-.828.845-1.259 1.261l.102.106c-.423.408-.857.813-1.302 1.212l-.1-.11c-.439.393-.888.782-1.348 1.167l.096.114c-.453.379-.916.754-1.389 1.125l-.091-.117c-.462.362-.934.72-1.414 1.073l.088.121c-.476.351-.962.696-1.457 1.038l-.085-.122c-.483.335-.976.665-1.476.991l.081.125c-.494.322-.997.64-1.507.953l-.078-.126c-.504.309-1.016.616-1.535.918l.074.128c-.509.296-1.025.587-1.548.873l-.071-.13a73.1 73.1 0 0 1-1.575.84l.068.132c-.524.272-1.056.538-1.593.801l-.064-.132c-.53.26-1.066.516-1.608.768l.062.133a90.22 90.22 0 0 1-1.63.736l-.059-.135a83.54 83.54 0 0 1-1.634.698l.055.137c-.548.228-1.101.453-1.661.673l-.054-.14c-.547.215-1.1.427-1.658.634l.052.141a101.2 101.2 0 0 1-1.686.606l-.049-.14c-.556.194-1.116.384-1.681.571l.046.14a94.42 94.42 0 0 1-1.705.547l-.043-.141c-.563.175-1.131.345-1.702.512l.041.142c-.57.167-1.144.329-1.722.487l-.038-.141c-.569.156-1.143.308-1.72.456l.036.142c-.574.148-1.153.292-1.735.431l-.034-.144c-.575.138-1.153.272-1.735.402l.033.143c-.58.13-1.162.255-1.748.376l-.03-.144c-.578.12-1.161.236-1.746.348l.028.144c-.584.111-1.17.219-1.759.322l-.026-.144c-.582.102-1.167.2-1.754.295l.023.145c-.587.094-1.176.185-1.769.271l-.02-.146c-.585.085-1.173.166-1.763.243l.019.147c-.59.077-1.182.15-1.777.22l-.016-.147c-.587.068-1.176.132-1.768.192l.015.149c-.592.06-1.187.117-1.783.17l-.012-.149c-.588.052-1.179.1-1.772.144l.011.148c-.593.044-1.188.083-1.786.12l-.009-.148c-.59.036-1.181.068-1.775.096l.006.147c-.594.028-1.189.051-1.786.071l-.004-.147c-.592.02-1.185.036-1.781.048l.002.146c-.593.012-1.189.02-1.786.024v-.147a133.283 133.283 0 0 1-1.791 0l-.001.147c-.597-.004-1.192-.012-1.786-.024l.003-.146c-.595-.012-1.189-.028-1.78-.048l-.005.147c-.597-.02-1.193-.043-1.786-.071l.007-.147c-.594-.028-1.186-.06-1.776-.096l-.01.148c-.597-.037-1.192-.076-1.785-.12l.011-.148c-.592-.044-1.183-.092-1.771-.144l-.013.149a143.67 143.67 0 0 1-1.783-.17l.015-.149c-.591-.06-1.181-.124-1.767-.192l-.018.147a138.92 138.92 0 0 1-1.776-.22l.019-.147c-.59-.077-1.178-.158-1.762-.243l-.022.146c-.592-.086-1.182-.177-1.768-.271l.024-.145a133.67 133.67 0 0 1-1.755-.295l-.026.144c-.59-.103-1.176-.21-1.759-.322l.028-.144c-.585-.112-1.167-.228-1.746-.348l-.03.144c-.586-.121-1.169-.246-1.748-.376l.033-.143c-.581-.13-1.16-.264-1.734-.402l-.035.144c-.583-.139-1.161-.283-1.736-.431l.037-.142c-.577-.148-1.15-.3-1.719-.456l-.039.141a98.501 98.501 0 0 1-1.722-.487l.042-.142c-.571-.167-1.139-.337-1.701-.512l-.045.141a94.42 94.42 0 0 1-1.705-.547l.047-.14c-.565-.187-1.126-.377-1.681-.571l-.05.14a95.004 95.004 0 0 1-1.685-.607l.051-.14a95.103 95.103 0 0 1-1.658-.634l-.055.14a95.851 95.851 0 0 1-1.661-.673l.057-.137a81.108 81.108 0 0 1-1.635-.698l-.059.135a87.083 87.083 0 0 1-1.629-.736l.061-.133a82.46 82.46 0 0 1-1.607-.768l-.066.132a78.245 78.245 0 0 1-1.591-.801l.068-.132a73.593 73.593 0 0 1-1.575-.84l-.073.13a66.897 66.897 0 0 1-1.547-.873l.075-.128a77.237 77.237 0 0 1-1.535-.918l-.08.126a65.79 65.79 0 0 1-1.506-.953l.082-.125a64.35 64.35 0 0 1-1.477-.991l-.085.122c-.494-.342-.98-.688-1.457-1.039l.089-.12a59.83 59.83 0 0 1-1.414-1.073l-.093.117a57 57 0 0 1-1.388-1.125l.096-.114a53.7 53.7 0 0 1-1.347-1.167l-.1.11c-.445-.399-.88-.803-1.304-1.211l.104-.107a48.316 48.316 0 0 1-1.26-1.261l-.108.104a45.215 45.215 0 0 1-1.212-1.314l.113-.099c-.396-.446-.78-.898-1.15-1.353l-.116.094a38.903 38.903 0 0 1-1.093-1.409l.12-.088a37.998 37.998 0 0 1-1.024-1.457l-.125.082a35.21 35.21 0 0 1-.951-1.51l.128-.075a32.845 32.845 0 0 1-.865-1.548l-.133.068a31.303 31.303 0 0 1-.782-1.603l.135-.061a29.574 29.574 0 0 1-.685-1.641l-.14.053a28.49 28.49 0 0 1-.586-1.685l.144-.044a27.313 27.313 0 0 1-.474-1.709l-.145.034c-.14-.579-.26-1.161-.362-1.747l.148-.026c-.1-.582-.182-1.168-.242-1.757l-.149.014a26.04 26.04 0 0 1-.122-1.779l.15-.004a25.3 25.3 0 0 1-.012-.444l-.004-.446c0-.297.005-.593.016-.889l-.15-.006c.02-.596.061-1.189.122-1.778l.149.014c.06-.589.141-1.175.242-1.758l-.148-.025c.1-.583.22-1.162.36-1.738l.002-.009.145.035c.139-.573.297-1.143.474-1.709l-.144-.045c.177-.566.373-1.127.586-1.685l.14.053c.21-.55.44-1.097.685-1.64l-.135-.062c.244-.538.504-1.073.782-1.603l.133.069c.272-.52.56-1.036.865-1.548l-.128-.076c.302-.507.619-1.011.951-1.51l.125.083c.327-.49.669-.975 1.025-1.457l-.12-.09c.35-.474.713-.944 1.091-1.409l.001.001.117.095c.37-.456.753-.907 1.149-1.354l-.113-.1c.392-.442.796-.88 1.213-1.313l.108.105c.408-.425.827-.845 1.259-1.261l-.104-.108c.424-.408.859-.812 1.304-1.211l.1.111c.438-.393.888-.782 1.347-1.167l-.096-.115c.453-.38.915-.755 1.388-1.125l.093.118a56.3 56.3 0 0 1 1.414-1.073l-.089-.121c.371-.273.747-.544 1.129-.812l.328-.227.085.123c.484-.335.976-.665 1.477-.992l-.082-.126c.494-.322.996-.64 1.507-.953l.079.127c.504-.31 1.016-.615 1.535-.917l-.075-.13a73.399 73.399 0 0 1 1.547-.873l.073.132a75.93 75.93 0 0 1 1.575-.84l-.069-.133a82.034 82.034 0 0 1 1.592-.801l.066.133a80.75 80.75 0 0 1 1.607-.768l-.061-.134c.537-.25 1.08-.495 1.629-.736l.059.136a88.84 88.84 0 0 1 1.635-.7l-.057-.136a93.522 93.522 0 0 1 1.661-.673l.055.14a97.415 97.415 0 0 1 1.658-.633l-.051-.141a93.443 93.443 0 0 1 1.685-.607l.05.141a97.359 97.359 0 0 1 1.681-.571l-.047-.142a113.52 113.52 0 0 1 1.705-.547l.044.143c.563-.175 1.13-.346 1.702-.513l-.042-.142a108.1 108.1 0 0 1 1.722-.488l.039.143c.569-.156 1.142-.308 1.719-.456l-.037-.144c.575-.147 1.153-.29 1.736-.43l.035.143c.574-.137 1.153-.27 1.734-.4l-.033-.145a128.15 128.15 0 0 1 1.748-.376l.03.145c.579-.12 1.161-.235 1.746-.347l-.028-.145a116.74 116.74 0 0 1 1.759-.323l.026.146c.582-.102 1.167-.2 1.755-.295l-.024-.146a98.808 98.808 0 0 1 1.768-.27l.022.146c.584-.085 1.172-.166 1.762-.244l-.019-.147c.589-.077 1.181-.151 1.776-.22l.018.148c.586-.069 1.176-.132 1.767-.193l-.015-.15c.591-.06 1.185-.117 1.782-.17h.001l.013.15c.588-.052 1.179-.1 1.771-.143l-.011-.15c.593-.044 1.188-.083 1.785-.119l.01.149c.59-.036 1.182-.068 1.776-.096l-.007-.149c.593-.027 1.189-.05 1.786-.07l.005.148c.591-.02 1.185-.036 1.78-.048l-.003-.148c.594-.011 1.189-.02 1.786-.023l.001.147a133.589 133.589 0 0 1 1.791 0v-.147c.597.004 1.193.011 1.786.023l-.002.148c.596.012 1.189.028 1.781.048l.004-.148c.597.02 1.192.043 1.786.07l-.006.149c.594.028 1.185.06 1.775.096l.009-.149c.598.036 1.193.075 1.786.12l-.011.149c.593.044 1.184.091 1.772.143l.013-.15c.596.053 1.19.11 1.782.17l-.014.15c.591.06 1.18.124 1.767.193l.016-.149c.595.07 1.187.144 1.777.22l-.019.148c.59.078 1.178.159 1.763.244l.02-.147c.593.086 1.182.176 1.769.27l-.023.147c.587.094 1.172.193 1.754.295l.026-.146c.589.104 1.175.211 1.759.323l-.028.145c.585.112 1.168.227 1.746.347l.03-.145c.586.122 1.168.247 1.748.376l-.033.145c.582.13 1.16.263 1.735.4l.034-.143c.582.14 1.161.283 1.735.43l-.036.144c.577.148 1.151.3 1.72.456l.038-.143a108.1 108.1 0 0 1 1.722.488l-.041.142c.571.167 1.139.338 1.702.513l.043-.143c.573.178 1.141.361 1.705.547l-.046.142c.565.186 1.125.377 1.681.571l.049-.141c.566.198 1.129.4 1.686.606v.001l-.052.14c.558.208 1.111.418 1.658.633l.054-.14c.559.22 1.113.446 1.661.674l-.055.136c.55.23 1.095.463 1.634.7l.059-.136a90.22 90.22 0 0 1 1.63.736l-.062.134c.542.252 1.078.508 1.608.768l.064-.133c.537.263 1.069.529 1.593.8l-.068.133c.532.276 1.057.557 1.575.841l.071-.132c.523.287 1.039.578 1.548.873h.001l-.075.13c.519.302 1.031.607 1.535.917l.078-.127c.51.314 1.013.631 1.507.953h.001l-.082.126c.5.327.993.657 1.476.992l.085-.123c.495.342.981.687 1.457 1.038l-.088.122c.48.353.952.71 1.414 1.073l.091-.118c.473.37.936.745 1.389 1.125l-.096.115c.46.385.909.774 1.348 1.167l.1-.112c.445.4.879.804 1.302 1.213l-.102.107c.431.416.851.836 1.259 1.26l.107-.104c.417.434.821.871 1.213 1.314l-.112.1c.396.446.779.897 1.149 1.353l.116-.095c.378.465.742.935 1.092 1.408l-.119.09c.356.482.698.967 1.024 1.457l.124-.083c.333.499.65 1.002.952 1.509l-.127.077c.304.512.592 1.028.865 1.548l.132-.069c.278.53.539 1.065.783 1.603l-.136.062c.246.543.475 1.09.686 1.64l.138-.053c.214.558.41 1.119.586 1.685l-.142.045c.176.566.335 1.136.473 1.709l.145-.035Z"/><path stroke="#575757" stroke-dasharray="1.8 1.8" stroke-width=".301" d="M189.355 61.938c.578.15 1.154.302 1.727.458l-.038.145c.575.157 1.147.316 1.716.479l.04-.145c.577.165 1.151.334 1.722.505l-.042.144c.57.17 1.136.346 1.7.523l.044-.142c.572.18 1.141.363 1.707.55l-.046.142c.567.187 1.13.378 1.69.571l.048-.142c.565.195 1.126.394 1.683.595l-.05.141c.564.204 1.124.41 1.68.621l.052-.14c.557.21 1.11.423 1.659.64l-.054.14c.559.22 1.113.445 1.664.672l.057-.14c.552.229 1.1.46 1.643.694l-.058.138c.549.237 1.095.477 1.635.72l.061-.138c.546.246 1.088.495 1.626.747l-.064.136c.54.253 1.076.51 1.607.77l.064-.135c.54.265 1.075.532 1.605.803l-.068.134c.53.27 1.054.544 1.574.821l.069-.133a97.49 97.49 0 0 1 1.579.862l-.072.13c.52.29 1.035.584 1.544.88l.074-.13c.52.303 1.034.61 1.543.92l-.077.128c.509.31 1.013.623 1.511.94l.08-.127c.507.322 1.007.648 1.502.978l-.082.125c.497.33.988.665 1.472 1.003l.085-.123c.493.343.978.69 1.457 1.04l-.088.12c.483.353.958.71 1.427 1.069l.091-.12c.476.365.945.734 1.406 1.106h.001l-.094.117c.466.375.924.753 1.374 1.135l.096-.114c.458.388.908.78 1.35 1.175l-.1.112c.446.399.883.8 1.313 1.205l.102-.11c.437.413.865.829 1.284 1.248l-.105.106c.422.422.836.848 1.24 1.277l.108-.103a57.2 57.2 0 0 1 1.208 1.322l-.11.1c.395.445.781.895 1.156 1.348l.115-.096c.384.463.759.93 1.123 1.4h.001l-.119.091c.364.47.718.945 1.061 1.422l.121-.088c.351.489.691.981 1.02 1.477l-.123.083c.329.496.648.997.955 1.5l.126-.078c.312.512.613 1.028.901 1.547h.001l-.131.072c.29.522.567 1.047.832 1.575l.133-.067c.268.534.523 1.071.765 1.612l-.135.061c.244.545.474 1.093.691 1.644l.14-.055c.219.555.423 1.114.614 1.675l-.14.049c.192.564.371 1.13.535 1.699l.142-.041c.165.574.316 1.15.452 1.729l-.144.034c.136.578.257 1.159.363 1.742l.146-.027c.107.585.201 1.173.278 1.764v.001l-.149.02c.076.588.138 1.178.184 1.77l.148-.011c.046.592.077 1.187.092 1.784l-.148.004a33.107 33.107 0 0 1 0 1.785l.148.003a34.137 34.137 0 0 1-.092 1.784l-.148-.011a34.818 34.818 0 0 1-.184 1.771l.149.019a34.997 34.997 0 0 1-.278 1.765l-.146-.026a34.737 34.737 0 0 1-.363 1.742l.144.033a35.963 35.963 0 0 1-.452 1.728l-.142-.04c-.164.57-.343 1.136-.535 1.7l.14.047c-.191.562-.395 1.12-.614 1.675l-.14-.053a39.48 39.48 0 0 1-.691 1.643l.135.061c-.242.54-.497 1.078-.765 1.612l-.133-.066a42.466 42.466 0 0 1-.832 1.575l.13.071a44.038 44.038 0 0 1-.901 1.547l-.126-.077a48.396 48.396 0 0 1-.955 1.5l.123.082c-.329.495-.669.988-1.02 1.476l-.121-.087c-.343.478-.697.952-1.061 1.422l.118.091c-.364.47-.739.936-1.123 1.4l-.115-.095c-.375.453-.761.902-1.156 1.348l.111.099c-.393.444-.797.884-1.209 1.321l-.108-.101a59.33 59.33 0 0 1-1.24 1.276l.105.106c-.419.419-.847.834-1.284 1.247l-.102-.109c-.43.405-.867.807-1.313 1.205l.1.112a71.04 71.04 0 0 1-1.35 1.175l-.096-.114c-.45.382-.908.761-1.374 1.136l.093.115c-.461.372-.93.741-1.406 1.107l-.091-.119c-.468.359-.944.715-1.427 1.068l.088.121c-.479.35-.965.696-1.457 1.039l-.085-.122c-.484.338-.975.672-1.472 1.003l.082.124c-.495.329-.995.655-1.502.978l-.08-.125c-.498.316-1.002.629-1.511.939l.077.127c-.509.309-1.023.616-1.543.919l-.074-.129c-.509.296-1.024.59-1.544.88l.072.13c-.521.29-1.047.577-1.579.861l-.069-.132a96.99 96.99 0 0 1-1.574.821l.068.133c-.53.271-1.065.539-1.605.803l-.064-.134c-.531.26-1.067.517-1.607.771l.064.135c-.538.252-1.08.501-1.626.747l-.061-.137c-.54.243-1.086.483-1.635.72l.058.136c-.544.234-1.091.466-1.643.694l-.057-.138c-.551.227-1.105.451-1.664.672l.054.139c-.549.216-1.102.429-1.659.639l-.052-.138c-.556.21-1.116.417-1.68.621l.05.139c-.557.202-1.118.401-1.683.596l-.048-.142c-.56.194-1.123.384-1.69.572l.046.141c-.566.187-1.135.371-1.707.551l-.044-.143c-.564.178-1.13.353-1.7.524l.042.142c-.571.172-1.145.34-1.722.505l-.04-.143c-.569.163-1.141.323-1.716.479l.038.144c-.573.156-1.149.308-1.727.458l-.037-.145c-.576.149-1.155.295-1.737.438l.034.145c-.574.141-1.152.279-1.732.413l-.033-.145c-.58.134-1.162.266-1.746.394l.031.146c-.58.127-1.162.251-1.747.372l-.029-.146c-.581.12-1.164.236-1.749.35l.027.147c-.586.113-1.174.225-1.765.333l-.026-.148c-.581.106-1.165.209-1.751.309l.024.146c-.586.1-1.174.198-1.765.291l-.023-.147c-.587.093-1.177.183-1.768.269l.021.147c-.586.086-1.175.17-1.765.25l-.02-.149c-.59.08-1.182.156-1.776.23l.017.148c-.589.073-1.179.144-1.772.21l-.017-.148c-.589.066-1.18.129-1.773.189l.013.148c-.593.06-1.189.119-1.786.173l-.012-.15c-.59.053-1.181.104-1.774.152l.011.148c-.593.047-1.187.091-1.783.132l-.009-.149c-.594.041-1.191.079-1.788.114l.008.148c-.592.034-1.185.065-1.78.093l-.006-.149c-.594.028-1.19.054-1.787.076l.005.149c-.595.022-1.191.04-1.789.056l-.003-.15c-.592.016-1.186.029-1.781.038l.001.15c-.596.009-1.193.014-1.791.017v-.148l-.898.002-.897-.002v.148c-.598-.003-1.195-.008-1.791-.017l.002-.15a149.78 149.78 0 0 1-1.781-.038l-.004.15c-.598-.016-1.194-.034-1.789-.056l.005-.149c-.597-.022-1.193-.048-1.787-.076l-.006.149c-.595-.028-1.188-.059-1.78-.093l.009-.148c-.597-.035-1.194-.073-1.788-.114l-.011.149c-.595-.041-1.189-.085-1.782-.132l.012-.148c-.593-.048-1.184-.099-1.774-.152l-.013.15c-.598-.054-1.193-.113-1.787-.173l.015-.148c-.593-.06-1.185-.123-1.774-.189l-.017.148c-.593-.066-1.183-.137-1.772-.21l.017-.148c-.593-.074-1.185-.15-1.775-.23l-.021.149c-.59-.08-1.179-.164-1.765-.25l.021-.147c-.591-.086-1.18-.177-1.767-.27l-.024.148c-.591-.093-1.179-.191-1.765-.291l.024-.146c-.586-.1-1.169-.203-1.75-.309l-.027.148c-.591-.108-1.18-.22-1.766-.333l.029-.147c-.585-.114-1.168-.231-1.749-.35l-.031.146a158.51 158.51 0 0 1-1.746-.372l.032-.146c-.585-.128-1.167-.26-1.747-.394l-.033.145c-.58-.134-1.158-.272-1.732-.413l.035-.145c-.582-.143-1.161-.289-1.738-.438l-.037.145c-.578-.15-1.154-.302-1.727-.458l.039-.144a126.63 126.63 0 0 1-1.716-.479l-.041.143c-.577-.165-1.151-.333-1.722-.505l.043-.142c-.57-.171-1.136-.346-1.7-.524l-.045.143c-.572-.18-1.141-.364-1.707-.551l.047-.141c-.567-.188-1.13-.378-1.69-.572l-.05.142c-.565-.195-1.126-.394-1.683-.596l.052-.139a127.28 127.28 0 0 1-1.68-.621l-.053.139c-.557-.21-1.11-.424-1.66-.64l.056-.139c-.559-.221-1.114-.445-1.664-.672l-.058.138c-.552-.228-1.1-.46-1.643-.694l.06-.136c-.55-.237-1.096-.477-1.636-.72l-.063.137c-.546-.246-1.088-.496-1.625-.748l.064-.134c-.54-.254-1.075-.511-1.606-.771l-.066.134a99.903 99.903 0 0 1-1.604-.803l.069-.133a96.99 96.99 0 0 1-1.574-.821l-.071.132c-.531-.284-1.057-.571-1.578-.861l.073-.13c-.52-.29-1.035-.584-1.544-.88l-.075.129c-.52-.303-1.034-.61-1.543-.919l.078-.127c-.51-.31-1.014-.623-1.512-.939l-.08.125a90.467 90.467 0 0 1-1.503-.978l.084-.124a81.114 81.114 0 0 1-1.472-1.003l-.086.122a78.517 78.517 0 0 1-1.457-1.039l.089-.121a80.248 80.248 0 0 1-1.427-1.068l-.092.119a77.333 77.333 0 0 1-1.406-1.107l.094-.115a70.264 70.264 0 0 1-1.374-1.136l-.097.114a71.01 71.01 0 0 1-1.35-1.175l.1-.112c-.446-.398-.883-.8-1.312-1.205l-.103.109a65.302 65.302 0 0 1-1.284-1.247l.106-.106a59.341 59.341 0 0 1-1.24-1.276l-.11.102a57.074 57.074 0 0 1-1.209-1.322l.113-.099a54.31 54.31 0 0 1-1.156-1.348l-.116.095c-.384-.464-.759-.93-1.123-1.4l.118-.091a48.17 48.17 0 0 1-1.06-1.422l-.122.087a47.772 47.772 0 0 1-1.02-1.477l.124-.081c-.33-.497-.648-.997-.955-1.5l-.128.077a43.738 43.738 0 0 1-.901-1.547l.132-.071a42.62 42.62 0 0 1-.832-1.575l-.134.066a41.144 41.144 0 0 1-.765-1.612l.136-.061a39.78 39.78 0 0 1-.692-1.643l-.14.053a37.59 37.59 0 0 1-.614-1.675l.14-.047c-.192-.564-.37-1.13-.534-1.7l-.143.04a35.964 35.964 0 0 1-.453-1.728l.146-.033a35.433 35.433 0 0 1-.364-1.742l-.146.026a34.999 34.999 0 0 1-.278-1.765l.15-.019a34.478 34.478 0 0 1-.184-1.771l-.149.011a34.47 34.47 0 0 1-.093-1.784l.15-.003-.012-.893c0-.298.004-.595.012-.892l-.15-.004c.015-.597.047-1.192.093-1.784l.149.011c.046-.592.107-1.182.183-1.77l-.148-.02-.001-.001a34.78 34.78 0 0 1 .278-1.764l.146.027c.106-.583.228-1.164.364-1.742l-.145-.034c.136-.579.287-1.155.452-1.729l.143.041c.164-.569.342-1.136.534-1.699l-.14-.049c.191-.561.395-1.12.614-1.675l.14.055c.217-.551.448-1.099.692-1.644l-.136-.061c.242-.54.497-1.078.765-1.612l.134.067a42.31 42.31 0 0 1 .832-1.575l-.132-.073a44.93 44.93 0 0 1 .901-1.546l.128.078a46.05 46.05 0 0 1 .955-1.5l-.125-.082c.33-.496.67-.989 1.02-1.478l.123.088c.343-.477.696-.951 1.06-1.422l-.118-.092a53.7 53.7 0 0 1 1.123-1.399l.116.096c.375-.453.76-.903 1.156-1.349l-.111-.1c.393-.444.795-.885 1.207-1.322l.11.104c.404-.429.818-.855 1.24-1.277l-.106-.106c.419-.42.847-.835 1.284-1.247l.103.11a66 66 0 0 1 1.312-1.206l-.1-.112c.442-.395.892-.787 1.35-1.175l.097.114c.45-.382.908-.76 1.374-1.136l-.094-.116c.461-.372.93-.74 1.406-1.106l.092.12c.469-.36.944-.716 1.427-1.068l-.09-.121c.48-.35.965-.697 1.458-1.04l.086.123c.484-.338.975-.672 1.472-1.003l-.084-.125c.495-.33.996-.655 1.503-.978l.08.126c.498-.316 1.003-.63 1.512-.94l-.078-.127c.509-.31 1.023-.617 1.543-.92l.075.13c.51-.296 1.024-.59 1.544-.88l-.073-.13c.52-.29 1.047-.578 1.578-.862l.071.133c.52-.277 1.044-.55 1.574-.82l-.069-.135c.53-.27 1.064-.538 1.604-.803l.066.135c.53-.26 1.066-.517 1.606-.77l-.064-.135a110.9 110.9 0 0 1 1.625-.748l.063.138c.54-.243 1.086-.483 1.635-.72l-.06-.138a115.11 115.11 0 0 1 1.644-.693l.058.139c.55-.227 1.105-.452 1.664-.672l-.056-.139c.55-.217 1.102-.431 1.66-.642l.053.141c.556-.21 1.116-.417 1.68-.621l-.052-.14a118.92 118.92 0 0 1 1.683-.596l.05.142c.56-.193 1.123-.384 1.69-.571l-.047-.143c.566-.186 1.135-.37 1.707-.55l.045.143c.564-.177 1.13-.352 1.7-.523l-.043-.144c.571-.171 1.145-.34 1.722-.505l.041.145c.569-.163 1.141-.322 1.716-.479l-.039-.145c.301-.082.604-.164.907-.244l.82-.214.037.145c.577-.149 1.156-.295 1.738-.437l-.035-.147c.574-.14 1.152-.278 1.732-.413l.033.147c.58-.135 1.162-.267 1.747-.395l-.032-.146a134.67 134.67 0 0 1 1.746-.372l.031.147c.581-.12 1.164-.237 1.749-.35l-.029-.148c.586-.114 1.175-.225 1.766-.333l.027.148a153.09 153.09 0 0 1 1.75-.308l-.024-.148c.586-.1 1.174-.197 1.764-.29h.001l.024.149a155.89 155.89 0 0 1 1.767-.27l-.021-.148c.586-.086 1.175-.17 1.765-.25l.021.15c.59-.08 1.182-.157 1.775-.23l-.017-.15a165.09 165.09 0 0 1 1.772-.21l.017.15c.589-.067 1.181-.13 1.774-.19l-.015-.148c.594-.06 1.189-.119 1.787-.173l.013.15c.59-.053 1.181-.104 1.774-.151l-.012-.15c.593-.047 1.187-.09 1.783-.131l.01.15c.594-.042 1.191-.08 1.788-.114l-.009-.15c.592-.034 1.185-.064 1.78-.092l.006.15c.594-.029 1.19-.054 1.787-.076l-.005-.15c.595-.022 1.191-.04 1.789-.056l.004.15a174.48 174.48 0 0 1 1.781-.038l-.002-.15h-.001c.596-.01 1.193-.015 1.792-.018v.15a167.628 167.628 0 0 1 1.795 0v-.15c.599.003 1.196.008 1.792.018l-.002.15c.595.01 1.189.023 1.781.038l.003-.15c.598.016 1.194.034 1.789.056l-.005.15c.597.022 1.193.047 1.787.075l.006-.15c.595.029 1.188.06 1.78.093l-.008.15c.597.035 1.194.072 1.788.113l.009-.15c.596.042 1.19.085 1.783.133l-.011.149c.593.047 1.184.098 1.774.151l.012-.15c.597.054 1.193.113 1.786.173l-.013.148c.593.06 1.184.123 1.773.19l.017-.15c.593.067 1.183.137 1.772.21l-.017.15c.594.073 1.186.15 1.776.23l.02-.15c.59.08 1.179.164 1.765.25l-.021.147c.591.087 1.181.178 1.768.27l.024-.148c.59.093 1.178.19 1.764.29l-.024.148c.586.1 1.17.203 1.751.308l.026-.148c.591.107 1.179.22 1.765.333l-.027.148c.585.113 1.168.23 1.749.35l.029-.147c.585.12 1.167.245 1.747.372l-.031.146c.584.128 1.166.26 1.746.395l.033-.147c.58.135 1.158.272 1.732.413l-.034.147c.582.142 1.161.288 1.737.437l.037-.145Z"/><path fill="url(#a)" stroke="#fff" stroke-opacity=".4" stroke-width=".301" d="M195.079 133.255c-2.189 3.526-1.722 7.151-1.464 8.408.062.299.258.547.523.7l52.503 30.428s-.725-6.542.902-9.621c2.225-4.209 7.066-4.96 7.066-4.96l-50.532-28.96a4.647 4.647 0 0 0-1.891-.596c-.428-.039-.86-.045-1.277.057-1.186.291-3.803 1.279-5.83 4.544Z"/><ellipse cx="251.28" cy="165.878" fill="url(#b)" rx="5.056" ry="8.56" transform="rotate(27.067 251.28 165.878)"/><path stroke="#fff" stroke-opacity=".4" stroke-width=".301" d="M255.107 158.389c1.177.602 1.853 1.967 1.961 3.735.108 1.765-.354 3.901-1.42 5.986-1.065 2.086-2.526 3.712-4.019 4.658-1.497.948-2.999 1.201-4.176.599-1.176-.601-1.852-1.966-1.96-3.734-.108-1.765.354-3.902 1.419-5.987 1.066-2.085 2.527-3.711 4.02-4.657 1.496-.949 2.998-1.201 4.175-.6Z"/><ellipse cx="150.131" cy="111.909" fill="#1A1A1A" rx="51.562" ry="30.817"/><path stroke="#fff" stroke-opacity=".4" stroke-width=".301" d="M150.131 81.242c14.216 0 27.079 3.444 36.383 9.005 9.307 5.562 15.029 13.226 15.029 21.662 0 8.436-5.722 16.1-15.029 21.662-9.304 5.561-22.167 9.004-36.383 9.004-14.215 0-27.079-3.443-36.382-9.004-9.307-5.562-15.03-13.226-15.03-21.662 0-8.436 5.723-16.1 15.03-21.662 9.303-5.56 22.166-9.005 36.382-9.005Z"/><ellipse cx="148.928" cy="101.536" fill="url(#c)" rx="50.36" ry="30.066"/><path stroke="#fff" stroke-opacity=".4" stroke-width=".301" d="M148.928 71.621c13.884 0 26.447 3.36 35.533 8.784 9.09 5.427 14.677 12.903 14.677 21.131 0 8.229-5.587 15.704-14.677 21.131-9.086 5.425-21.649 8.784-35.533 8.784s-26.446-3.359-35.532-8.784c-9.089-5.427-14.677-12.902-14.677-21.131 0-8.228 5.588-15.704 14.677-21.13 9.086-5.425 21.648-8.785 35.532-8.785Z"/><ellipse cx="149.229" cy="101.235" fill="url(#d)" rx="40.137" ry="24.052"/><path stroke="#fff" stroke-opacity=".4" stroke-width=".301" d="M149.229 77.334c11.061 0 21.068 2.687 28.304 7.023 7.24 4.338 11.683 10.31 11.683 16.879 0 6.568-4.444 12.54-11.683 16.878-7.236 4.336-17.243 7.023-28.304 7.023s-21.068-2.687-28.304-7.023c-7.239-4.338-11.683-10.31-11.683-16.878s4.444-12.54 11.683-16.88c7.236-4.335 17.243-7.022 28.304-7.022Z"/><path fill="url(#e)" stroke="#fff" stroke-opacity=".4" stroke-width=".3" d="m193.489 138-10.518-5.743c-.307-.168-.562-.421-.675-.752-.381-1.106-.916-3.895 1.981-6.569 3.723-3.436 5.223-1.603 11.862 2.102 2.586 1.444 3.304 2.073 3.304 2.073s-2.037 1.333-3.604 3.111c-1.567 1.778-2.35 5.778-2.35 5.778Z"/><path fill="url(#f)" stroke="#C2C2C2" stroke-width=".301" d="M118.412 69.366h30.879l21.736-12.497s-10.343-8.687-31.179-4.877c-20.836 3.81-21.436 17.374-21.436 17.374Z"/><path fill="url(#g)" stroke="#C2C2C2" stroke-width=".301" d="m132.53 86.203 16.85-14.281-30.968-.15s.08 4.665 4.961 8.267a128.463 128.463 0 0 0 9.157 6.164Z"/><path fill="#272727" stroke="#C2C2C2" stroke-width=".301" d="M149.38 75.229v-5.863l21.797-12.327v6.164L149.38 75.229Zm-16.537 20.294V86.17l16.536-14.4v9.47l-16.536 14.282Zm-14.42 6.464V71.771s.139 3.909 5.25 8.268c5.112 4.36 9.02 6.013 9.02 6.013l-.15 28.112s-4.162-1.203-8.472-4.36c-4.311-3.157-5.648-7.817-5.648-7.817Z"/><path fill="url(#h)" stroke="#C2C2C2" stroke-width=".301" d="m132.843 95.824 16.386-14.582 19.392 13.38s-6.614 4.204-18.64 4.359c-12.026.154-17.138-3.157-17.138-3.157Z"/><path fill="#272727" stroke="#C2C2C2" stroke-width=".301" d="M132.843 114.314v-18.49s9.471 4.059 19.994 3.006c10.523-1.052 15.935-4.058 15.935-4.058v18.189s-7.817 3.758-17.589 4.209c-9.771.451-18.34-2.856-18.34-2.856Zm16.537-33.072v-5.863l19.542 13.229-.15 6.013-19.392-13.38Zm19.542 31.719V88.775s4.744-1.874 7.817-5.813c2.743-3.516 2.985-7.514 3.005-8.334l.002-.15-.002.15-.299 26.925s0 2.586-3.909 6.54c-3.908 3.955-6.614 4.868-6.614 4.868Z"/><path fill="url(#i)" stroke="#C2C2C2" stroke-width=".301" d="M169.072 88.758 149.53 75.38l21.647-12.026s8.118 5.111 8.569 10.072c.451 4.96-1.053 7.516-3.007 10.072-1.954 2.555-7.667 5.261-7.667 5.261Z"/><path fill="#272727" stroke="#C2C2C2" stroke-width=".301" d="M118.412 71.922v-2.556h30.817v2.556h-30.817Z"/><defs><linearGradient id="a" x1="210.262" x2="223.998" y1="110.105" y2="172.791" gradientUnits="userSpaceOnUse"><stop stop-color="gray"/><stop offset=".844" stop-color="#1A1A1A"/></linearGradient><linearGradient id="b" x1="248.227" x2="268.009" y1="159.671" y2="175.808" gradientUnits="userSpaceOnUse"><stop offset=".259" stop-color="#262626"/><stop offset="1" stop-color="#AAA"/></linearGradient><linearGradient id="c" x1="148.928" x2="148.928" y1="71.471" y2="131.602" gradientUnits="userSpaceOnUse"><stop stop-color="#B9B9B9"/><stop offset="1" stop-color="#434343"/></linearGradient><linearGradient id="d" x1="149.229" x2="149.229" y1="77.183" y2="125.288" gradientUnits="userSpaceOnUse"><stop offset=".487" stop-color="#fff"/><stop offset="1" stop-color="#737373"/></linearGradient><linearGradient id="e" x1="192.535" x2="193" y1="116.828" y2="151.5" gradientUnits="userSpaceOnUse"><stop offset=".221" stop-color="#AAA"/><stop offset=".614" stop-color="#444"/></linearGradient><linearGradient id="f" x1="116.314" x2="154.118" y1="76.682" y2="47.764" gradientUnits="userSpaceOnUse"><stop stop-color="#3A3A3A"/><stop offset=".767" stop-color="#A0A0A0"/></linearGradient><linearGradient id="g" x1="132.226" x2="133.618" y1="87.374" y2="73.288" gradientUnits="userSpaceOnUse"><stop stop-color="#939393"/><stop offset=".922" stop-color="#2D2D2D"/></linearGradient><linearGradient id="h" x1="150.732" x2="145.471" y1="81.242" y2="98.83" gradientUnits="userSpaceOnUse"><stop offset=".496" stop-color="#3A3A3A"/><stop offset="1" stop-color="#A0A0A0"/></linearGradient><linearGradient id="i" x1="169.373" x2="165.765" y1="89.51" y2="66.66" gradientUnits="userSpaceOnUse"><stop stop-color="#A0A0A0"/><stop offset=".805" stop-color="#3A3A3A"/></linearGradient></defs></svg>