<svg xmlns="http://www.w3.org/2000/svg" width="140" height="30" fill="none"><path fill="#fff" d="M23.836 5.868v-3.75h-12v25.764h12v-3.75a9.34 9.34 0 0 1-6.554-2.675A9.065 9.065 0 0 1 14.567 15c0-2.422.977-4.745 2.715-6.458a9.34 9.34 0 0 1 6.554-2.674Zm0 0v18.264a9.34 9.34 0 0 0 6.554-2.675A9.065 9.065 0 0 0 33.105 15a9.065 9.065 0 0 0-2.715-6.458 9.34 9.34 0 0 0-6.554-2.674Zm16.003 2.294h2.686v12.75H39.84V8.162Zm4.191 8.382c0-.917.276-1.814.794-2.576a4.687 4.687 0 0 1 2.114-1.706 4.774 4.774 0 0 1 2.72-.26 4.73 4.73 0 0 1 2.407 1.276 4.612 4.612 0 0 1 1.28 2.379 4.57 4.57 0 0 1-.278 2.678 4.65 4.65 0 0 1-1.743 2.074 4.753 4.753 0 0 1-2.62.768 4.7 4.7 0 0 1-1.8-.344 4.646 4.646 0 0 1-1.525-1.004 4.566 4.566 0 0 1-1.011-1.509 4.513 4.513 0 0 1-.338-1.776Zm6.734 0a1.99 1.99 0 0 0-.37-1.103 2.037 2.037 0 0 0-.927-.717 2.071 2.071 0 0 0-2.206.47 1.985 1.985 0 0 0-.419 2.186c.156.363.417.674.752.893a2.06 2.06 0 0 0 1.128.336 2.014 2.014 0 0 0 1.469-.598 1.956 1.956 0 0 0 .555-1.467h.018Zm13.246-4.367v8.302c0 2.93-2.33 4.174-4.684 4.174a4.534 4.534 0 0 1-2.406-.47 4.454 4.454 0 0 1-1.794-1.648l2.265-1.288c.184.365.476.666.837.863.362.197.776.28 1.187.24a1.816 1.816 0 0 0 1.45-.47 1.763 1.763 0 0 0 .556-1.4v-.803a3.173 3.173 0 0 1-2.588 1.129 4.511 4.511 0 0 1-3.166-1.292 4.379 4.379 0 0 1-1.312-3.12 4.38 4.38 0 0 1 1.312-3.12 4.511 4.511 0 0 1 3.166-1.292c.49-.022.98.068 1.43.264.449.196.846.492 1.158.866v-.883l2.588-.052Zm-2.589 4.19a2.093 2.093 0 0 0-.318-1.199 2.14 2.14 0 0 0-.945-.819 2.178 2.178 0 0 0-2.371.402 2.088 2.088 0 0 0-.508 2.318c.16.391.435.727.79.964.355.237.774.364 1.203.364a2.035 2.035 0 0 0 1.532-.544 1.974 1.974 0 0 0 .617-1.485Zm4.101.177c0-.917.276-1.812.793-2.574a4.686 4.686 0 0 1 2.112-1.706A4.766 4.766 0 0 1 71.144 12c.913.18 1.75.622 2.407 1.27a4.612 4.612 0 0 1 1.285 2.375c.18.899.086 1.83-.271 2.677a4.648 4.648 0 0 1-1.736 2.077 4.752 4.752 0 0 1-2.614.777 4.71 4.71 0 0 1-1.805-.341 4.652 4.652 0 0 1-1.53-1.004 4.576 4.576 0 0 1-1.015-1.509 4.521 4.521 0 0 1-.343-1.779Zm6.735 0a1.997 1.997 0 0 0-.371-1.104 2.038 2.038 0 0 0-.928-.717 2.07 2.07 0 0 0-2.208.473 1.985 1.985 0 0 0-.413 2.188c.157.365.42.676.756.893.335.218.729.333 1.13.332a2.012 2.012 0 0 0 1.47-.598 1.954 1.954 0 0 0 .555-1.467h.009Zm3.895-6.706c0-.31.094-.614.269-.872a1.59 1.59 0 0 1 .715-.579 1.617 1.617 0 0 1 1.738.34 1.55 1.55 0 0 1 .346 1.712 1.585 1.585 0 0 1-.588.705 1.61 1.61 0 0 1-.886.265 1.624 1.624 0 0 1-1.122-.465 1.577 1.577 0 0 1-.472-1.106Zm.26 2.339h2.687v8.735h-2.687v-8.735Zm14.185 4.367a4.368 4.368 0 0 1-.255 1.71 4.397 4.397 0 0 1-.903 1.482c-.397.43-.876.78-1.41 1.026a4.532 4.532 0 0 1-1.704.415 3.377 3.377 0 0 1-1.467-.232 3.335 3.335 0 0 1-1.22-.836v4.314h-2.686V12.178h2.687v.82a3.32 3.32 0 0 1 1.22-.833c.465-.183.966-.26 1.466-.226a4.53 4.53 0 0 1 1.697.412 4.47 4.47 0 0 1 1.407 1.02 4.385 4.385 0 0 1 1.168 3.174Zm-2.687 0a2.062 2.062 0 0 0-.382-1.143 2.108 2.108 0 0 0-.96-.743 2.143 2.143 0 0 0-2.287.488 2.067 2.067 0 0 0-.428 2.266c.163.377.435.698.782.924.347.226.755.345 1.17.343a2.051 2.051 0 0 0 1.539-.603 1.99 1.99 0 0 0 .566-1.532Zm10.863 1.747c0 2.012-1.791 2.868-3.69 2.868a3.935 3.935 0 0 1-2.231-.464 3.855 3.855 0 0 1-1.583-1.619l2.31-1.288c.092.315.29.59.562.777.272.188.602.278.933.256.636 0 .959-.195.959-.547 0-.962-4.362-.45-4.362-3.477 0-1.906 1.63-2.859 3.475-2.859a3.933 3.933 0 0 1 2.016.454 3.862 3.862 0 0 1 1.495 1.408l-2.31 1.2a1.294 1.294 0 0 0-.481-.557 1.322 1.322 0 0 0-.71-.21c-.467 0-.744.176-.744.485 0 1.006 4.361.344 4.361 3.573Zm9.734-6.114v8.735h-2.686v-.82c-.305.363-.693.65-1.131.838a3.094 3.094 0 0 1-1.394.247c-1.792 0-3.323-1.262-3.323-3.618v-5.383h2.687v4.986c-.022.208.003.419.073.617a1.454 1.454 0 0 0 .854.874c.197.077.41.11.622.097.967 0 1.648-.565 1.648-1.765v-4.808h2.65Zm15.224 3.37v5.365h-2.686v-5.136c0-.882-.421-1.429-1.272-1.429s-1.388.609-1.388 1.641v4.924h-2.687v-5.136c0-.882-.421-1.429-1.271-1.429-.851 0-1.388.609-1.388 1.641v4.924h-2.687v-8.736h2.687v.803a2.732 2.732 0 0 1 1.057-.817 2.78 2.78 0 0 1 1.325-.224c.454-.023.907.07 1.313.271.407.202.754.503 1.006.876.296-.39.686-.699 1.136-.9.448-.2.943-.285 1.434-.247 2.096 0 3.421 1.43 3.421 3.609Zm2.257-3.423c1.088 0 1.97-.87 1.97-1.942s-.882-1.94-1.97-1.94-1.97.868-1.97 1.94.882 1.942 1.97 1.942Z"/></svg>