<svg xmlns="http://www.w3.org/2000/svg" width="140" height="30" fill="none"><g fill="#fff" clip-path="url(#a)"><path d="M44.593 21.185h8.746V18.55h-5.637V8.628h-3.109v12.556Zm13.927-1.756c-1.247 0-1.896-1.09-1.896-2.722 0-1.634.65-2.74 1.896-2.74 1.247 0 1.914 1.106 1.914 2.74 0 1.633-.667 2.722-1.914 2.722Zm.018 2.037c2.897 0 4.794-2.055 4.794-4.76 0-2.704-1.897-4.758-4.794-4.758-2.88 0-4.812 2.054-4.812 4.759 0 2.704 1.932 4.759 4.812 4.759Zm9.809 2.827c1.335 0 2.511-.299 3.302-1.001.72-.65 1.194-1.633 1.194-2.985v-8.113h-2.74v.965h-.035c-.527-.755-1.335-1.229-2.529-1.229-2.23 0-3.775 1.861-3.775 4.496 0 2.757 1.879 4.267 3.898 4.267 1.089 0 1.774-.439 2.3-1.036h.07v.895c0 1.09-.508 1.721-1.72 1.721-.948 0-1.422-.403-1.58-.878h-2.775c.28 1.88 1.914 2.898 4.39 2.898Zm-.017-5.725c-1.072 0-1.774-.878-1.774-2.23 0-1.37.702-2.248 1.773-2.248 1.195 0 1.827 1.019 1.827 2.23 0 1.265-.58 2.248-1.827 2.248Zm10.146.861c-1.247 0-1.897-1.09-1.897-2.722 0-1.634.65-2.74 1.897-2.74 1.247 0 1.914 1.106 1.914 2.74 0 1.633-.667 2.722-1.914 2.722Zm.017 2.037c2.898 0 4.794-2.055 4.794-4.76 0-2.704-1.896-4.758-4.794-4.758-2.88 0-4.811 2.054-4.811 4.759 0 2.704 1.931 4.759 4.811 4.759Zm5.631-.281h2.862v-8.992h-2.862v8.992Zm0-10.238h2.862V8.629h-2.862v2.318Zm4.104 13.205h2.862v-3.898h.035c.562.755 1.387 1.212 2.546 1.212 2.354 0 3.916-1.862 3.916-4.777 0-2.704-1.457-4.759-3.845-4.759-1.23 0-2.108.544-2.722 1.352h-.053v-1.088h-2.74v11.958Zm4.706-4.899c-1.23 0-1.932-1.001-1.932-2.459 0-1.457.632-2.564 1.88-2.564 1.228 0 1.808 1.02 1.808 2.564 0 1.528-.667 2.459-1.756 2.459Zm9.314 2.213c2.353 0 4.091-1.019 4.091-2.986 0-2.3-1.861-2.704-3.442-2.968-1.141-.21-2.16-.298-2.16-.93 0-.562.545-.826 1.247-.826.791 0 1.335.246 1.44 1.054h2.634c-.14-1.774-1.51-2.88-4.056-2.88-2.125 0-3.881.984-3.881 2.88 0 2.107 1.668 2.529 3.231 2.792 1.194.211 2.283.299 2.283 1.107 0 .58-.544.895-1.405.895-.948 0-1.545-.439-1.651-1.334h-2.704c.088 1.984 1.739 3.196 4.373 3.196Zm7.98-.018c1.247 0 2.037-.492 2.687-1.37h.052v1.107h2.74v-8.991h-2.863v5.022c0 1.071-.597 1.809-1.58 1.809-.913 0-1.352-.545-1.352-1.528v-5.303h-2.845v5.9c0 2.002 1.089 3.354 3.161 3.354Zm6.724-.263h2.863v-5.04c0-1.072.526-1.827 1.422-1.827.861 0 1.264.562 1.264 1.528v5.339h2.863v-5.04c0-1.072.509-1.827 1.422-1.827.861 0 1.265.562 1.265 1.528v5.339h2.862v-5.848c0-2.02-1.018-3.407-3.055-3.407-1.16 0-2.125.492-2.828 1.58h-.035c-.457-.965-1.352-1.58-2.529-1.58-1.299 0-2.16.615-2.722 1.545h-.052v-1.281h-2.74v8.99ZM27.13 1.447 24.251.675l-2.426 9.051-2.189-8.17-2.878.77 2.366 8.829-5.893-5.893-2.106 2.107 6.463 6.463-8.049-2.156-.771 2.877 8.794 2.357a5.959 5.959 0 1 1 11.611-.008l7.993 2.14.77-2.877L29.11 13.8l8.049-2.156-.771-2.878-8.829 2.365 5.892-5.892-2.107-2.106-6.373 6.373 2.16-8.058Z"/><path d="M29.166 16.935a5.947 5.947 0 0 1-1.482 2.731l5.79 5.79 2.107-2.107-6.415-6.414Zm-1.541 2.792a5.954 5.954 0 0 1-2.662 1.574l2.107 7.863 2.878-.771-2.323-8.666Zm-2.77 1.603a5.972 5.972 0 0 1-3.077-.027l-2.109 7.87 2.878.77 2.308-8.613Zm-3.178-.057a5.958 5.958 0 0 1-2.616-1.597l-5.805 5.804 2.107 2.107 6.314-6.314Zm-2.665-1.648a5.946 5.946 0 0 1-1.445-2.698L9.55 19.076l.77 2.878 8.693-2.33Z"/></g><defs><clipPath id="a"><path fill="#fff" d="M8.537 0h122.927v30H8.537z"/></clipPath></defs></svg>