<svg xmlns="http://www.w3.org/2000/svg" width="140" height="30" fill="none"><g fill="#fff" clip-path="url(#a)"><path d="M44.944 21.069h8.589v-2.635h-5.536V8.512h-3.053v12.556Zm13.676-1.757c-1.224 0-1.862-1.088-1.862-2.722 0-1.633.638-2.74 1.863-2.74 1.224 0 1.88 1.107 1.88 2.74 0 1.634-.656 2.722-1.88 2.722Zm.018 2.037c2.845 0 4.708-2.054 4.708-4.759 0-2.704-1.863-4.759-4.708-4.759-2.828 0-4.725 2.055-4.725 4.76 0 2.704 1.897 4.758 4.725 4.758Zm9.634 2.828c1.31 0 2.466-.299 3.242-1.001.707-.65 1.172-1.633 1.172-2.986v-8.113h-2.69v.966h-.034c-.518-.755-1.311-1.23-2.484-1.23-2.19 0-3.707 1.862-3.707 4.496 0 2.758 1.845 4.268 3.828 4.268 1.07 0 1.742-.44 2.26-1.036h.068v.895c0 1.09-.5 1.721-1.69 1.721-.931 0-1.397-.404-1.552-.878H63.96c.276 1.88 1.88 2.898 4.312 2.898Zm-.018-5.725c-1.052 0-1.742-.878-1.742-2.23 0-1.37.69-2.248 1.742-2.248 1.173 0 1.794 1.018 1.794 2.23 0 1.264-.57 2.248-1.794 2.248Zm9.964.86c-1.225 0-1.863-1.088-1.863-2.722 0-1.633.638-2.74 1.863-2.74 1.224 0 1.88 1.107 1.88 2.74 0 1.634-.656 2.722-1.88 2.722Zm.017 2.037c2.846 0 4.708-2.054 4.708-4.759 0-2.704-1.862-4.759-4.708-4.759-2.828 0-4.725 2.055-4.725 4.76 0 2.704 1.897 4.758 4.725 4.758Zm5.529-.28h2.811v-8.992h-2.81v8.992Zm0-10.238h2.811V8.512h-2.81v2.319Zm4.03 13.205h2.812v-3.898h.034c.552.755 1.362 1.211 2.5 1.211 2.311 0 3.846-1.861 3.846-4.776 0-2.705-1.431-4.76-3.776-4.76-1.208 0-2.07.545-2.673 1.353h-.052v-1.089h-2.69v11.96Zm4.622-4.9c-1.207 0-1.897-1-1.897-2.458 0-1.457.621-2.564 1.846-2.564 1.207 0 1.776 1.019 1.776 2.564 0 1.528-.656 2.459-1.725 2.459Zm9.148 2.214c2.311 0 4.018-1.02 4.018-2.986 0-2.3-1.828-2.704-3.38-2.968-1.121-.21-2.121-.298-2.121-.93 0-.562.534-.826 1.224-.826.776 0 1.311.246 1.414 1.054h2.587c-.138-1.774-1.483-2.88-3.984-2.88-2.087 0-3.811.983-3.811 2.88 0 2.107 1.638 2.529 3.173 2.792 1.173.21 2.242.299 2.242 1.106 0 .58-.535.896-1.38.896-.931 0-1.517-.439-1.62-1.335h-2.657c.087 1.985 1.708 3.197 4.295 3.197Zm7.836-.018c1.224 0 2-.492 2.638-1.37h.052v1.107h2.69v-8.992h-2.811V17.1c0 1.07-.586 1.808-1.552 1.808-.897 0-1.328-.544-1.328-1.527v-5.304h-2.794v5.9c0 2.003 1.07 3.355 3.105 3.355Zm6.603-.263h2.811v-5.04c0-1.072.517-1.827 1.397-1.827.845 0 1.242.562 1.242 1.528v5.338h2.811v-5.04c0-1.07.5-1.826 1.396-1.826.845 0 1.242.562 1.242 1.528v5.338h2.811v-5.847c0-2.02-1-3.407-3.001-3.407-1.138 0-2.086.492-2.776 1.58h-.035c-.448-.966-1.328-1.58-2.483-1.58-1.276 0-2.121.614-2.673 1.545h-.052v-1.282h-2.69v8.992Z"/><path fill-rule="evenodd" d="M16.218 2.847a14.554 14.554 0 0 0-2.764 2.572c3.297-.312 7.487.197 12.351 2.674 5.194 2.644 9.377 2.734 12.288 2.162a14.694 14.694 0 0 0-.99-2.34c-3.333.357-7.605-.117-12.583-2.651-3.162-1.61-5.948-2.273-8.302-2.417Zm18.938 2.246C32.524 2.099 28.7.215 24.444.215c-1.25 0-2.463.162-3.619.468a26.78 26.78 0 0 1 4.98 1.963c3.645 1.856 6.792 2.453 9.35 2.447Zm3.56 8.02c-3.517.708-8.373.562-14.196-2.402-5.444-2.772-9.776-2.737-12.698-2.076-.151.034-.298.07-.442.108a14.71 14.71 0 0 0-.907 2.663c.234-.064.476-.124.725-.18 3.545-.803 8.554-.768 14.607 2.314 5.444 2.772 9.776 2.737 12.699 2.075.1-.022.198-.046.295-.07a15.172 15.172 0 0 0-.084-2.432Zm-.386 5.52c-3.482.62-8.197.383-13.81-2.475-5.444-2.772-9.776-2.737-12.698-2.076-.649.147-1.232.326-1.747.515-.002.084-.002.168-.002.252 0 8.082 6.434 14.634 14.371 14.634 6.652 0 12.248-4.602 13.886-10.85Z" clip-rule="evenodd"/></g><defs><clipPath id="a"><path fill="#fff" d="M10 0h120v30H10z"/></clipPath></defs></svg>