<svg xmlns="http://www.w3.org/2000/svg" width="140" height="30" fill="none"><g fill="#fff" clip-path="url(#a)"><path fill-rule="evenodd" d="M26.034 19.8a3.017 3.017 0 0 1-2.13-.879 2.994 2.994 0 0 1-.881-2.121V3H17v13.8c0 4.97 4.045 9 9.034 9h6.625v-6h-6.625ZM44.102 9a5.438 5.438 0 0 0-3.833 1.582 5.4 5.4 0 0 0-1.587 3.818 5.383 5.383 0 0 0 1.587 3.818 5.423 5.423 0 0 0 3.833 1.582 5.43 5.43 0 0 0 3.833-1.582 5.39 5.39 0 0 0 0-7.636A5.43 5.43 0 0 0 44.102 9ZM32.66 14.4C32.66 8.104 37.783 3 44.102 3c6.32 0 11.444 5.104 11.444 11.4s-5.124 11.4-11.444 11.4c-6.32 0-11.443-5.104-11.443-11.4ZM109.148 9a5.43 5.43 0 0 0-3.833 1.582 5.388 5.388 0 0 0 0 7.636 5.433 5.433 0 0 0 7.666 0 5.391 5.391 0 0 0 0-7.636A5.433 5.433 0 0 0 109.148 9Zm-11.444 5.4c0-6.296 5.124-11.4 11.444-11.4 6.319 0 11.443 5.104 11.443 11.4s-5.124 11.4-11.443 11.4c-6.32 0-11.444-5.104-11.444-11.4ZM68.194 3C61.873 3 56.75 8.104 56.75 14.4s5.123 11.4 11.443 11.4h16.864c1.186 0 2.33-.18 3.405-.514L91.682 27l3.474-6.482a11.37 11.37 0 0 0 1.344-5.361V14.4C96.5 8.104 91.376 3 85.057 3H68.193Zm22.283 11.4a5.39 5.39 0 0 0-1.587-3.818A5.431 5.431 0 0 0 85.057 9H68.193a5.438 5.438 0 0 0-3.833 1.582 5.4 5.4 0 0 0-1.587 3.818 5.383 5.383 0 0 0 1.587 3.818 5.423 5.423 0 0 0 3.833 1.582h16.864c1.43 0 2.802-.563 3.818-1.567a5.39 5.39 0 0 0 1.602-3.791V14.4Z" clip-rule="evenodd"/><path d="M123 4.5a1.499 1.499 0 0 1-1.506 1.5 1.507 1.507 0 0 1-1.505-1.5 1.507 1.507 0 0 1 3.011 0Z"/></g><defs><clipPath id="a"><path fill="#fff" d="M17 3h106v24H17z"/></clipPath></defs></svg>