<svg xmlns="http://www.w3.org/2000/svg" width="300" height="240" fill="none"><g clip-path="url(#a)"><path stroke="#3F3F3F" stroke-dasharray="2.7 2.7" stroke-width=".338" d="M0-.169h337.811" transform="matrix(-.90258 .43051 -.8195 -.8195 268.997 40.264)"/><path stroke="#3F3F3F" stroke-dasharray="2.7 2.7" stroke-width=".338" d="M0-.169h337.811" transform="matrix(.7071 .7071 -.68406 .75887 4.631 25.738)"/><path stroke="#3F3F3F" stroke-dasharray="2.7 2.7" stroke-width=".338" d="M0-.169h337.811" transform="matrix(-.90258 .43051 -.8195 -.8195 288.59 62.56)"/><path stroke="#3F3F3F" stroke-dasharray="2.7 2.7" stroke-width=".338" d="m62.858-16.95 239.206 238.531"/><path stroke="#5A5A5A" stroke-dasharray="1.37 1.37" stroke-width=".683" d="m161.324 124.007 19.815 19.815"/><path stroke="#5A5A5A" stroke-width=".683" d="m85.216 143.743 25.136-12.95"/><path stroke="#5A5A5A" stroke-width=".342" d="m129.556 57.837 32.798-15.716"/><path stroke="#5A5A5A" stroke-width=".683" d="m178.674 98.683 27.331-13.666"/><path stroke="#2C2C2C" stroke-width=".342" d="m131.811 81.774 10.249 10.25m-18.448-6.15 10.249 10.249"/><path fill="#252525" d="M99.7 120.223 168 87.646l22.214 22.215-68.299 32.576z"/><path stroke="#fff" stroke-opacity=".4" stroke-width=".338" d="M.272.047h75.332v31.079H.272z" transform="matrix(.90258 -.43051 .7071 .7071 99.694 120.354)"/><g filter="url(#b)"><path fill="#000" fill-opacity=".2" d="m117.46 110.877 41.809-19.942 15.8 15.8-41.809 19.942z"/></g><path fill="#343434" d="m124.087 100.477 43.906-20.942 14.333 14.332-43.907 20.942z"/><path stroke="#fff" stroke-opacity=".6" stroke-width=".338" d="M.272.047h48.307v19.931H.272z" transform="matrix(.90258 -.43051 .7071 .7071 124.081 100.608)"/><path fill="url(#c)" d="m132.634 102.017 1.411-.673 2.202 2.202c.056-.126.139-.259.248-.399.108-.14.237-.279.386-.416.149-.137.314-.267.496-.391.179-.126.371-.238.578-.336a5.355 5.355 0 0 1 2.966-.489c.485.063.946.196 1.384.399.438.198.825.466 1.161.802.351.351.584.708.699 1.072.113.361.121.714.024 1.058-.096.34-.295.662-.595.967-.3.301-.688.565-1.164.793a5.852 5.852 0 0 1-.635.258 7.195 7.195 0 0 1-1.291.313c-.209.026-.404.04-.585.042l.317.317-1.41.673-6.192-6.192Zm6.218 4.134c.232.022.459.026.68.012a4.98 4.98 0 0 0 1.229-.228c.186-.062.358-.132.517-.207.324-.155.577-.326.761-.513.185-.19.303-.386.355-.588a1.025 1.025 0 0 0-.022-.612 1.55 1.55 0 0 0-.388-.593 2.147 2.147 0 0 0-.638-.434 2.654 2.654 0 0 0-.801-.224 3.096 3.096 0 0 0-.895.013 3.109 3.109 0 0 0-.909.28 3.032 3.032 0 0 0-.527.317 2.896 2.896 0 0 0-.434.383 2.25 2.25 0 0 0-.305.427 1.398 1.398 0 0 0-.15.441l1.527 1.526Zm3.878-7.197a1.63 1.63 0 0 1-.426.137 1.644 1.644 0 0 1-.413.01 1.39 1.39 0 0 1-.372-.098 1.01 1.01 0 0 1-.29-.198.638.638 0 0 1-.165-.258.47.47 0 0 1-.001-.275.629.629 0 0 1 .163-.26 1.1 1.1 0 0 1 .332-.23c.143-.068.286-.112.43-.133.144-.025.282-.03.414-.015.131.014.254.047.367.1a.932.932 0 0 1 .295.196c.079.08.133.166.161.26.028.089.03.18.005.272a.676.676 0 0 1-.164.266 1.17 1.17 0 0 1-.336.226Zm-.104.938 1.41-.673 4.404 4.404-1.41.673-4.404-4.404Zm9.252 3.194a7.09 7.09 0 0 0 .667-.136 8.37 8.37 0 0 0 .615-.173 6.57 6.57 0 0 0 .545-.193 6.71 6.71 0 0 0 .439-.188c.375-.178.665-.37.869-.574.21-.203.347-.408.412-.615a.968.968 0 0 0 .001-.618 1.413 1.413 0 0 0-.362-.566l-.19-.19a2.192 2.192 0 0 1-.238.388 3.058 3.058 0 0 1-.377.412 4.62 4.62 0 0 1-1.141.765c-.461.219-.94.369-1.438.448-.5.077-.99.087-1.47.029a4.78 4.78 0 0 1-1.377-.385 3.94 3.94 0 0 1-1.149-.797c-.341-.341-.565-.69-.673-1.046a1.783 1.783 0 0 1-.017-1.045c.102-.339.302-.659.602-.96.3-.3.688-.565 1.164-.792.203-.097.415-.183.635-.259.22-.075.438-.139.654-.19.219-.053.433-.093.641-.119.209-.03.405-.046.586-.047l-.318-.318 1.411-.672 3.9 3.9c.4.4.677.792.83 1.175.153.383.183.751.09 1.103-.087.354-.299.691-.637 1.01-.335.322-.79.619-1.365.894a9.361 9.361 0 0 1-.665.284c-.235.094-.479.18-.732.261-.247.081-.499.155-.755.222-.251.068-.5.127-.748.175l-.409-1.183Zm-2.723-3.111c.176.176.387.322.633.436.247.111.512.184.798.221.282.034.576.028.882-.019.303-.049.603-.144.902-.287a2.968 2.968 0 0 0 .965-.702c.126-.137.227-.28.305-.427a1.35 1.35 0 0 0 .155-.443l-1.452-1.452a4.449 4.449 0 0 0-.68-.012c-.221.014-.434.04-.639.079-.205.039-.4.09-.586.153-.188.06-.362.128-.521.204a2.719 2.719 0 0 0-.766.514c-.184.187-.305.38-.362.58-.057.197-.055.394.007.593.063.198.182.385.359.562Zm6.105-8.22 1.601-.764 9.435 4.115-1.586.757-1.577-.698-4.35 2.075.405 1.257-1.591.759-2.337-7.502Zm6.303 2.72-4.26-1.882 1.082 3.398 3.178-1.516Zm5.097-.496a.801.801 0 0 1-.203-.317.565.565 0 0 1-.003-.34.747.747 0 0 1 .201-.327c.102-.104.241-.198.415-.281.175-.083.351-.14.528-.169.177-.03.347-.033.509-.011.163.017.315.059.455.124.142.061.262.142.361.242.1.099.167.206.203.322a.546.546 0 0 1 .004.334.75.75 0 0 1-.2.321c-.1.107-.237.202-.412.285a1.86 1.86 0 0 1-.531.165c-.177.03-.347.035-.51.018a1.562 1.562 0 0 1-.457-.119 1.258 1.258 0 0 1-.36-.247Zm.443-6.65a1.6 1.6 0 0 1-.426.137 1.4 1.4 0 0 1-.785-.089.991.991 0 0 1-.289-.198.641.641 0 0 1-.166-.257.47.47 0 0 1-.001-.275.629.629 0 0 1 .163-.26c.082-.087.193-.163.332-.23a1.48 1.48 0 0 1 .43-.133c.144-.025.282-.03.414-.016a1.2 1.2 0 0 1 .367.1.912.912 0 0 1 .295.196c.079.08.133.166.161.26.028.09.03.18.005.273a.673.673 0 0 1-.163.265 1.19 1.19 0 0 1-.337.227Zm-.104.937 1.41-.672 4.404 4.404-1.41.672-4.404-4.404Z"/><path fill="#fff" d="m95.178 119.436 4.879-2.327 3.822 3.822L99 123.258zm22.215 22.215 4.878-2.327 3.822 3.822-4.878 2.327zm68.298-32.577 4.878-2.327 3.822 3.822-4.878 2.327z"/><path fill="#252525" d="m48.534 145.919 26.317-12.553 21.417 21.417-26.318 12.553z"/><path stroke="#fff" stroke-opacity=".4" stroke-width=".338" d="M.272.047h28.821v29.951H.272z" transform="matrix(.90258 -.43051 .7071 .7071 48.527 146.05)"/><path stroke="#A7A7A7" stroke-linecap="round" stroke-linejoin="round" stroke-width=".683" d="m67.942 151.03-1.364 2.372 3.628-.243m-2.264-2.129 4.837-.324 1.817-3.162m-6.654 3.486-3.629.243 3.182-5.535 8.465-.567-1.364 2.373m-4.39 5.615-1.364 2.373 8.466-.567 3.181-5.535-3.628.243m-6.655 3.486 4.837-.323 1.818-3.163m-2.265-2.129 3.629-.243-1.364 2.372"/><path fill="#252525" d="m195.908 75.327 26.318-12.553 21.416 21.417-26.317 12.553z"/><path stroke="#fff" stroke-opacity=".4" stroke-width=".338" d="M.272.047h28.821v29.951H.272z" transform="matrix(.90258 -.43051 .7071 .7071 195.902 75.457)"/><path stroke="#A7A7A7" stroke-linecap="round" stroke-linejoin="round" stroke-width=".683" d="m223.245 72.96 4.957 5.187c.282.295.408.651.351.992-.057.34-.293.636-.656.822l-9.116 4.686c-.362.186-.822.248-1.278.171-.455-.077-.869-.285-1.151-.58l-4.957-5.187m11.85-6.09c-.282-.295-.696-.504-1.151-.58-.456-.077-.916-.016-1.278.17l-9.116 4.686c-.363.187-.598.482-.656.823-.057.34.069.697.351.991m11.85-6.09.115.12c.181.19.3.406.344.63a.98.98 0 0 1-.09.65l-2.379 4.622a1.261 1.261 0 0 1-.559.534c-.253.13-.556.2-.875.204l-6.736.063a2.312 2.312 0 0 1-.863-.16 1.936 1.936 0 0 1-.692-.452l-.115-.12"/><g opacity=".5"><path fill="#252525" d="M90.683 69.86 117 57.309l21.417 21.417L112.1 91.277z"/><path stroke="#fff" stroke-opacity=".05" stroke-width=".338" d="M.272.047h28.821v29.951H.272z" transform="matrix(.90258 -.43051 .7071 .7071 90.676 69.991)"/></g><path fill="url(#d)" d="M0 0h29.158v30.288H0z" transform="matrix(.90258 -.43051 .7071 .7071 93.416 60.295)"/><path stroke="#fff" stroke-opacity=".4" stroke-width=".338" d="M.272.047h28.821v29.951H.272z" transform="matrix(.90258 -.43051 .7071 .7071 93.41 60.425)"/><path stroke="#B1B1B1" stroke-linecap="round" stroke-linejoin="round" stroke-width=".683" d="M112.506 69.059c.514.603 1.302 1.046 2.191 1.23.889.184 1.807.094 2.55-.25l7.009-3.237c.547-.253.945-.653 1.123-1.13.179-.479.127-1.005-.146-1.487-.273-.483-.75-.89-1.348-1.153a3.72 3.72 0 0 0-1.924-.284 1.895 1.895 0 0 0-.646-.86 2.764 2.764 0 0 0-1.111-.507 2.913 2.913 0 0 0-1.242-.002 2.14 2.14 0 0 0-.999.504c-.782-.569-1.797-.9-2.828-.922-1.031-.023-1.998.264-2.697.8-.698.536-1.072 1.279-1.044 2.071.029.793.458 1.573 1.197 2.175-.432.409-.673.924-.689 1.472-.015.548.196 1.1.604 1.58Z"/><path fill="#252525" d="m167.21 150.488 26.318-12.553 21.416 21.417-26.317 12.553z"/><path stroke="#fff" stroke-opacity=".4" stroke-width=".338" d="M.272.047h28.821v29.951H.272z" transform="matrix(.90258 -.43051 .7071 .7071 167.204 150.619)"/><path stroke="#A7A7A7" stroke-linecap="round" stroke-linejoin="round" stroke-width=".683" d="M197.702 152.332c-.276-.3-.685-.514-1.137-.596-.452-.081-.91-.023-1.274.163l-2.283 1.163c.369.4.529.881.447 1.339-.082.457-.4.853-.885 1.1-.484.246-1.095.324-1.698.216-.603-.108-1.148-.394-1.517-.794l-2.283 1.163c-.363.185-.602.482-.663.825-.062.343.059.704.335 1.004m10.958-5.583 2.777 3.016c.276.3.397.661.335 1.004-.062.343-.3.64-.664.825l-8.219 4.188c-.363.185-.821.243-1.273.162-.452-.081-.861-.295-1.138-.595l-2.776-3.017m10.958-5.583-1.388-1.508m-9.57 7.091-1.388-1.508m10.958-5.583c-.276-.3-.685-.515-1.137-.596-.453-.081-.911-.023-1.274.162l-8.219 4.188c-.363.185-.602.482-.664.825-.061.343.059.704.336 1.004m10.958-5.583-1.388-1.509c-.276-.3-.685-.514-1.138-.595-.452-.081-.91-.023-1.273.162l-8.219 4.188c-.363.185-.602.482-.664.825-.061.343.059.704.335 1.004l1.389 1.508"/><g opacity=".6"><path fill="#252525" d="m151.495 31.597 26.318-12.553 21.416 21.417-26.317 12.553z"/><path stroke="#fff" stroke-opacity=".4" stroke-width=".338" d="M.272.047h28.821v29.951H.272z" transform="matrix(.90258 -.43051 .7071 .7071 151.488 31.727)"/><path stroke="#A7A7A7" stroke-linecap="round" stroke-linejoin="round" stroke-width=".683" d="m177.719 34.307-1.766-1.856c-.563-.59-1.39-1.01-2.302-1.166-.911-.156-1.831-.036-2.558.334-.726.37-1.2.96-1.316 1.64-.116.68.134 1.393.696 1.984l1.767 1.856m4.842 5.801 6.393-3.257c.363-.185.6-.48.658-.82.058-.34-.067-.696-.348-.992l-3.18-3.34c-.281-.296-.695-.506-1.15-.584-.456-.078-.916-.018-1.279.168l-6.393 3.257c-.363.185-.6.48-.658.82-.058.34.067.696.348.991l3.18 3.341c.281.296.695.505 1.15.584.456.078.916.017 1.279-.168Z"/></g></g><defs><linearGradient id="c" x1="167.901" x2="145.945" y1="73.687" y2="96.984" gradientUnits="userSpaceOnUse"><stop stop-color="#fff"/><stop offset="1" stop-color="#999"/></linearGradient><linearGradient id="d" x1="28.125" x2="1.164" y1="-6.427" y2="31.59" gradientUnits="userSpaceOnUse"><stop stop-color="#9A9A9A"/><stop stop-color="#A7A7A7"/><stop offset="1" stop-color="#525252"/></linearGradient><clipPath id="a"><path fill="#fff" d="M0 0h300v240H0z"/></clipPath><filter id="b" width="68.419" height="46.552" x="112.055" y="85.531" color-interpolation-filters="sRGB" filterUnits="userSpaceOnUse"><feFlood flood-opacity="0" result="BackgroundImageFix"/><feBlend in="SourceGraphic" in2="BackgroundImageFix" result="shape"/><feGaussianBlur result="effect1_foregroundBlur_31_107" stdDeviation="2.702"/></filter></defs></svg>