<svg xmlns="http://www.w3.org/2000/svg" width="140" height="30" fill="none"><path fill="#fff" d="M21.048 21.54h7.268L10.311 3.536H3.043l18.005 18.006ZM14.045 3.535l17.357 17.357V3.535h-4.697v5.48l-5.48-5.48h-7.18ZM0 4.138V21.54h4.697v-5.48l5.48 5.48h7.225L0 4.138Zm42.736 14.695h4.209v2.48h-7.422V8.124h3.213v10.71Zm9.949 2.63c-1.027 0-1.954-.219-2.78-.657a4.894 4.894 0 0 1-1.936-1.879c-.463-.814-.695-1.766-.695-2.856 0-1.077.238-2.023.714-2.837a4.827 4.827 0 0 1 1.954-1.897c.827-.439 1.754-.658 2.78-.658 1.028 0 1.955.22 2.782.658a4.827 4.827 0 0 1 1.953 1.897c.476.815.714 1.76.714 2.837 0 1.077-.244 2.03-.732 2.856a4.831 4.831 0 0 1-1.973 1.879c-.827.438-1.754.657-2.78.657Zm0-2.78c.614 0 1.134-.226 1.56-.677.438-.45.657-1.095.657-1.935 0-.839-.213-1.484-.639-1.935a2.005 2.005 0 0 0-1.54-.676c-.626 0-1.146.225-1.56.676-.413.439-.62 1.084-.62 1.935 0 .84.2 1.485.602 1.935.413.451.927.677 1.54.677Zm10.61-8.003c.74 0 1.384.15 1.935.45.564.3.996.695 1.297 1.184v-1.485h3.212v10.465c0 .965-.194 1.835-.582 2.612-.376.789-.958 1.415-1.747 1.879-.777.463-1.748.695-2.912.695-1.554 0-2.812-.37-3.777-1.109-.964-.726-1.515-1.716-1.653-2.968h3.175c.1.4.338.714.714.94.376.237.84.356 1.39.356.664 0 1.19-.194 1.579-.582.4-.376.6-.983.6-1.823V19.81c-.313.489-.745.89-1.296 1.203-.55.3-1.196.45-1.935.45a4.34 4.34 0 0 1-2.348-.657c-.702-.451-1.26-1.084-1.672-1.898-.401-.826-.602-1.778-.602-2.855 0-1.078.2-2.023.602-2.837.413-.814.97-1.44 1.672-1.88a4.34 4.34 0 0 1 2.348-.657Zm3.232 5.391c0-.801-.226-1.434-.677-1.897a2.137 2.137 0 0 0-1.615-.695c-.64 0-1.184.231-1.635.695-.438.45-.658 1.077-.658 1.879 0 .801.22 1.44.658 1.916a2.2 2.2 0 0 0 1.635.695c.638 0 1.177-.232 1.615-.695.451-.463.677-1.096.677-1.898Zm9.745 5.392c-1.027 0-1.954-.219-2.78-.657a4.894 4.894 0 0 1-1.936-1.879c-.463-.814-.695-1.766-.695-2.856 0-1.077.238-2.023.714-2.837a4.827 4.827 0 0 1 1.954-1.897c.827-.439 1.754-.658 2.78-.658 1.028 0 1.955.22 2.781.658a4.826 4.826 0 0 1 1.954 1.897c.476.815.714 1.76.714 2.837 0 1.077-.244 2.03-.732 2.856a4.831 4.831 0 0 1-1.973 1.879c-.827.438-1.754.657-2.78.657Zm0-2.78c.614 0 1.134-.226 1.56-.677.438-.45.657-1.095.657-1.935 0-.839-.213-1.484-.639-1.935a2.005 2.005 0 0 0-1.54-.676c-.626 0-1.146.225-1.56.676-.413.439-.62 1.084-.62 1.935 0 .84.2 1.485.602 1.935.413.451.927.677 1.54.677Zm8.243-8.943c-.564 0-1.027-.163-1.39-.489a1.657 1.657 0 0 1-.526-1.24c0-.5.175-.914.526-1.24.363-.338.826-.507 1.39-.507.551 0 1.002.17 1.353.507.363.326.544.74.544 1.24 0 .489-.181.902-.544 1.24-.351.326-.802.489-1.353.489Zm1.597 1.09v10.483h-3.213V10.83h3.213Zm4.977 1.484a3.494 3.494 0 0 1 1.296-1.184c.551-.3 1.197-.45 1.936-.45.864 0 1.647.218 2.348.657.702.438 1.253 1.065 1.654 1.879.413.814.62 1.76.62 2.837 0 1.077-.207 2.029-.62 2.855-.401.814-.952 1.447-1.654 1.898a4.34 4.34 0 0 1-2.348.657c-.727 0-1.372-.15-1.936-.45a3.577 3.577 0 0 1-1.296-1.165v6.463h-3.213V10.829h3.213v1.485Zm4.585 3.739c0-.802-.226-1.428-.677-1.88a2.159 2.159 0 0 0-1.634-.694c-.64 0-1.184.231-1.635.695-.438.463-.657 1.096-.657 1.897 0 .802.219 1.434.657 1.898.451.463.996.695 1.635.695s1.183-.232 1.634-.695c.451-.476.677-1.115.677-1.916Zm8.655 5.41c-.914 0-1.728-.156-2.442-.47-.714-.312-1.278-.738-1.691-1.277a3.434 3.434 0 0 1-.695-1.841h3.175c.038.363.207.658.508.883.3.226.67.338 1.108.338.401 0 .707-.075.921-.225.225-.163.338-.37.338-.62 0-.3-.157-.52-.47-.658-.314-.15-.821-.313-1.522-.488a15.464 15.464 0 0 1-1.879-.545 3.37 3.37 0 0 1-1.296-.92c-.363-.427-.545-.997-.545-1.71 0-.602.163-1.146.488-1.635.339-.501.828-.896 1.466-1.184.652-.288 1.422-.432 2.311-.432 1.315 0 2.349.326 3.1.977.764.651 1.202 1.516 1.315 2.593h-2.968a1.272 1.272 0 0 0-.489-.864c-.263-.213-.614-.32-1.052-.32-.375 0-.664.075-.864.226-.2.137-.3.332-.3.582 0 .3.156.526.469.677.325.15.827.3 1.503.45.777.2 1.409.401 1.898.602.488.188.914.5 1.277.939.376.426.57 1.002.583 1.729 0 .613-.176 1.164-.527 1.653-.338.476-.833.852-1.483 1.127-.64.276-1.385.413-2.237.413Zm16-10.633v10.483h-3.212v-1.428c-.326.464-.77.84-1.334 1.128a4.06 4.06 0 0 1-1.841.413c-.802 0-1.51-.175-2.124-.526a3.672 3.672 0 0 1-1.427-1.56c-.338-.676-.507-1.471-.507-2.386V10.83h3.193v5.693c0 .702.182 1.247.545 1.635.364.388.852.582 1.465.582.627 0 1.121-.194 1.485-.582.364-.389.545-.933.545-1.635V10.83h3.212Zm15.121-.113c1.303 0 2.336.394 3.1 1.183.777.79 1.166 1.886 1.166 3.288v6.125h-3.195V15.62c0-.676-.181-1.196-.545-1.559-.35-.376-.839-.564-1.465-.564-.626 0-1.121.188-1.485.564-.35.363-.525.883-.525 1.56v5.692h-3.195V15.62c0-.676-.18-1.196-.544-1.559-.351-.376-.839-.564-1.466-.564-.626 0-1.12.188-1.484.564-.35.363-.526.883-.526 1.56v5.692h-3.212V10.83h3.212v1.315a3.355 3.355 0 0 1 1.278-1.034c.526-.263 1.121-.394 1.784-.394.789 0 1.491.169 2.105.507.626.338 1.114.82 1.465 1.447a4.225 4.225 0 0 1 1.485-1.41 4.008 4.008 0 0 1 2.047-.544Z"/></svg>