<svg xmlns="http://www.w3.org/2000/svg" width="300" height="240" fill="none"><g clip-path="url(#a)"><path stroke="#3F3F3F" stroke-dasharray="3.96 3.96" stroke-width=".494" d="M0-.247h494.394" transform="matrix(-.90258 .43051 -.8195 -.8195 339.967 2.056)"/><path stroke="#3F3F3F" stroke-dasharray="3.96 3.96" stroke-width=".494" d="M0-.247h494.394" transform="matrix(.7071 .7071 -.68406 .75887 -46.939 -19.203)"/><path stroke="#3F3F3F" stroke-dasharray="3.96 3.96" stroke-width=".494" d="M0-.247h494.394" transform="matrix(-.90258 .43051 -.8195 -.8195 368.642 34.686)"/><path stroke="#3F3F3F" stroke-dasharray="3.96 3.96" stroke-width=".494" d="m38.278-81.678 350.083 349.096"/><path fill="#252525" d="m92.198 119.079 99.956-47.677 32.512 32.513-99.956 47.676z"/><path stroke="#fff" stroke-opacity=".4" stroke-width=".494" d="M.398.068h110.25v45.484H.398z" transform="matrix(.90258 -.43051 .7071 .7071 92.188 119.27)"/><g filter="url(#b)"><path fill="#000" fill-opacity=".2" d="m118.189 105.4 61.187-29.185 23.125 23.125-61.187 29.185z"/></g><path fill="#343434" d="m127.888 90.18 64.258-30.65 20.975 20.976-64.257 30.65z"/><path stroke="#fff" stroke-opacity=".6" stroke-width=".494" d="M.398.068h70.698v29.169H.398z" transform="matrix(.90258 -.43051 .7071 .7071 127.879 90.371)"/><path fill="url(#c)" d="m143.452 91.128 2.064-.984 3.223 3.223c.083-.185.204-.38.363-.585.159-.205.347-.408.565-.608a6.17 6.17 0 0 1 .726-.572 5.84 5.84 0 0 1 .846-.493 7.814 7.814 0 0 1 2.158-.674 7.598 7.598 0 0 1 2.183-.041c.71.092 1.385.286 2.025.583a5.73 5.73 0 0 1 1.699 1.174c.514.514.855 1.037 1.024 1.57.165.528.176 1.045.034 1.548-.141.497-.431.97-.87 1.416-.439.44-1.006.826-1.704 1.159a8.738 8.738 0 0 1-.929.379 10.358 10.358 0 0 1-1.89.458c-.305.038-.59.058-.855.06l.464.465-2.064.984-9.062-9.062Zm9.099 6.051c.341.032.673.037.996.018a7.451 7.451 0 0 0 1.798-.334c.272-.092.524-.193.757-.304.474-.226.845-.476 1.114-.75.27-.279.443-.566.519-.86a1.502 1.502 0 0 0-.031-.897c-.102-.3-.291-.59-.568-.867a3.145 3.145 0 0 0-.934-.635 3.877 3.877 0 0 0-1.173-.328 4.52 4.52 0 0 0-1.309.02c-.451.063-.894.2-1.331.408a4.502 4.502 0 0 0-.771.465 4.17 4.17 0 0 0-.634.56c-.18.199-.328.407-.447.625a2.04 2.04 0 0 0-.22.645l2.234 2.234Zm5.677-10.533a2.382 2.382 0 0 1-.624.2c-.21.031-.411.036-.604.015a2.042 2.042 0 0 1-.545-.144 1.464 1.464 0 0 1-.424-.29.935.935 0 0 1-.242-.376.691.691 0 0 1-.002-.403.937.937 0 0 1 .239-.38c.12-.127.282-.24.486-.337.21-.1.419-.165.629-.195a2.18 2.18 0 0 1 .606-.023c.192.022.372.07.538.147.167.071.31.167.431.287a.897.897 0 0 1 .235.38c.042.13.044.264.008.4a.98.98 0 0 1-.239.388 1.724 1.724 0 0 1-.492.331Zm-.153 1.372 2.064-.984 6.445 6.445-2.063.984-6.446-6.445Zm13.541 4.675c.333-.052.658-.118.975-.2.321-.077.621-.161.901-.252.289-.089.555-.183.798-.283.247-.096.461-.188.643-.274.548-.262.972-.542 1.27-.84.308-.298.508-.598.603-.901.1-.306.1-.607.002-.905a2.078 2.078 0 0 0-.53-.828l-.278-.28a3.163 3.163 0 0 1-.348.57 4.38 4.38 0 0 1-.551.601 6.81 6.81 0 0 1-1.671 1.12 7.661 7.661 0 0 1-2.104.657 7.892 7.892 0 0 1-2.151.041 6.983 6.983 0 0 1-2.016-.563 5.73 5.73 0 0 1-1.681-1.166c-.499-.5-.827-1.01-.985-1.532a2.608 2.608 0 0 1-.026-1.528c.15-.496.443-.965.882-1.405.438-.44 1.006-.827 1.703-1.16.298-.141.608-.267.93-.378.321-.11.64-.204.956-.279.321-.078.634-.135.939-.174.306-.043.592-.067.857-.07l-.464-.464 2.064-.984 5.708 5.708c.586.586.991 1.16 1.215 1.72.224.56.268 1.098.132 1.615-.127.518-.438 1.01-.932 1.477-.491.47-1.157.907-1.998 1.308a13.45 13.45 0 0 1-.974.416 15.85 15.85 0 0 1-1.071.382 19.357 19.357 0 0 1-2.199.581l-.599-1.731Zm-3.986-4.553c.258.258.568.471.927.639.361.161.75.269 1.167.322.414.05.844.041 1.291-.027a4.857 4.857 0 0 0 1.321-.42c.283-.135.545-.289.783-.462.24-.18.45-.368.629-.566.184-.2.333-.409.446-.625.119-.218.195-.434.227-.648l-2.125-2.125a6.507 6.507 0 0 0-.995-.017c-.324.02-.635.058-.935.115-.3.057-.586.131-.858.223a5.96 5.96 0 0 0-.762.3c-.474.225-.848.476-1.122.752-.268.273-.445.557-.53.85a1.47 1.47 0 0 0 .012.866c.091.29.265.564.524.823Zm8.935-12.031 2.343-1.118 13.809 6.023-2.322 1.108-2.308-1.02-6.366 3.035.593 1.84-2.329 1.11-3.42-10.978Zm9.225 3.982-6.235-2.754 1.584 4.972 4.651-2.218Zm-.195-8.29 2.224-1.06 8.538 8.537-2.225 1.061-8.537-8.537Z"/><path fill="#fff" d="m85.58 117.926 7.139-3.405 5.593 5.593-7.14 3.405zm32.511 32.512 7.14-3.405 5.593 5.593-7.14 3.405zm99.956-47.677 7.14-3.405 5.593 5.593-7.14 3.405z"/></g><defs><linearGradient id="c" x1="188.173" x2="159.522" y1="53.378" y2="83.62" gradientUnits="userSpaceOnUse"><stop stop-color="#fff"/><stop offset="1" stop-color="#999"/></linearGradient><clipPath id="a"><path fill="#fff" d="M0 0h300v240H0z"/></clipPath><filter id="b" width="100.132" height="68.13" x="110.279" y="68.305" color-interpolation-filters="sRGB" filterUnits="userSpaceOnUse"><feFlood flood-opacity="0" result="BackgroundImageFix"/><feBlend in="SourceGraphic" in2="BackgroundImageFix" result="shape"/><feGaussianBlur result="effect1_foregroundBlur_7_220" stdDeviation="3.955"/></filter></defs></svg>