<svg xmlns="http://www.w3.org/2000/svg" width="300" height="240" fill="none"><g clip-path="url(#a)"><path stroke="#3F3F3F" stroke-dasharray="3.96 3.96" stroke-width=".494" d="M342.073 53.126 1.748 249.564M300.144 5.248l-321 187m448.06 58.464L-92.143-49.752m487.346 350.465L-124.143.248"/><path fill="url(#b)" stroke="#B9B9B9" stroke-width=".215" d="m150.963 51.57-27.958 16.287a.215.215 0 0 0 .004.374l8.571 4.747c.269.15.307.528.085.74-1.318 1.264-4.518 5.042 1.355 7.439 6.288 2.567 11.333.384 12.444-.171a.455.455 0 0 1 .448.019l8.303 5.258a.43.43 0 0 0 .44.012l9.052-5.058c.284-.159.304-.573.049-.775-1.42-1.132-4.589-4.331.58-7.15 5.755-3.14 11.744-.642 12.907-.099.13.06.278.058.403-.01l8.639-4.662a.215.215 0 0 0 .006-.375l-28.393-16.574a6.884 6.884 0 0 0-6.935-.003Z"/><path fill="url(#c)" stroke="#B9B9B9" stroke-width=".215" d="M122.969 68.57v9.237l6.555 3.787v-4.807c0-.371 1.472-2.635 1.915-3.308a.216.216 0 0 0-.071-.303l-8.074-4.79a.215.215 0 0 0-.325.185Z"/><path fill="url(#d)" stroke="#B9B9B9" stroke-width=".215" d="m129.669 87.797-.145-9.116s1.602 2.275 6.117 3.496c4.516 1.22 9.468-.875 9.468-.875v9.323s-3.933 2.039-9.176 1.31c-4.847-.672-6.085-3.585-6.245-4.023a.348.348 0 0 1-.019-.115Z"/><path fill="url(#e)" stroke="#B9B9B9" stroke-width=".215" d="M145.255 90.645v-9.393c0-.169.185-.272.328-.183l8.747 5.414c.063.04.101.108.101.183v8.977a.215.215 0 0 1-.321.187l-8.747-4.998a.215.215 0 0 1-.108-.187Z"/><path fill="url(#f)" stroke="#B9B9B9" stroke-width=".215" d="M154.431 95.645v-9.099l9.614-5.68.145 9.613-9.437 5.353a.216.216 0 0 1-.322-.187Z"/><path fill="url(#g)" stroke="#B9B9B9" stroke-width=".215" d="M170.308 80.866c-3.641 0-6.117 1.893-6.117 1.893l-.131-1.691a.454.454 0 0 0-.177-.324c-.721-.562-3.537-2.988-1.877-5.413 1.893-2.768 4.661-3.35 7.865-3.642 2.883-.262 6.59 1.362 7.306 1.69a.21.21 0 0 1 .121.195l-.144 9.33s-3.204-2.038-6.846-2.038Z"/><path fill="url(#h)" stroke="#B9B9B9" stroke-width=".215" d="M177.3 82.759v-9.067a.43.43 0 0 1 .223-.378l8.489-4.655a.215.215 0 0 1 .318.189v8.687c0 .078-.041.15-.109.188l-8.921 5.036Z"/><path fill="url(#i)" d="m129.524 81.705-6.7-3.898-.145 18.372a.214.214 0 0 0 .109.189l9.431 5.349a.429.429 0 0 1 .218.374v6.943a.4.4 0 0 0 .202.353c.593.325 2.453 1.22 5.187 1.338 2.914.127 6.268-1.068 7.093-1.382a.437.437 0 0 1 .37.026l8.969 4.967a.215.215 0 0 0 .319-.188V95.919l-9.468-5.149s-4.952 2.185-9.613 1.311c-4.253-.797-5.717-3.656-5.941-4.15a.371.371 0 0 1-.031-.155v-6.071Z"/><path fill="#1A1A1A" stroke="#B9B9B9" stroke-width=".215" d="m94.302 126.045.264-10.804 28.257 17.625v11.07l-27.565-16.174a1.935 1.935 0 0 1-.956-1.717Z"/><path fill="#000" stroke="#B9B9B9" stroke-width=".215" d="M132.291 109.269v-7.283s-2.622 1.02-2.622 3.496 2.622 3.787 2.622 3.787Z"/><path fill="url(#j)" stroke="#B9B9B9" stroke-width=".215" d="m94.858 112.609 27.6-16.175a.43.43 0 0 1 .439.002l9.249 5.55s-5.244 3.204-.437 6.992c4.381 3.451 11.909.853 13.207.366a.44.44 0 0 1 .376.03l8.82 5.099a.216.216 0 0 1 .001.372l-8.595 5.048a.225.225 0 0 0-.039.356c1.054.99 5.207 5.382-1.098 7.955-6.261 2.556-10.953.18-12.011-.442a.46.46 0 0 0-.457-.011l-9.022 4.996a.428.428 0 0 1-.424-.004l-27.602-16.048c-1.566-.91-1.57-3.17-.007-4.086Z"/><path fill="url(#k)" stroke="#B9B9B9" stroke-width=".215" d="m132.146 127.913-9.177 5.098 30.685 17.454a2.152 2.152 0 0 0 2.135-.004l30.396-17.45-8.913-5.234a.225.225 0 0 1-.039-.357c1.069-.997 5.31-5.452-1.39-7.809-6.526-2.297-10.565-.095-11.558.558a.468.468 0 0 1-.496.018l-9.358-5.529-9.03 5.39s6.263 6.409-1.603 8.448c-7.865 2.039-11.652-.583-11.652-.583Z"/><path fill="#1A1A1A" stroke="#B9B9B9" stroke-width=".215" d="m154.084 150.643-31.115-17.632-.145 10.924 29.523 16.986a4.732 4.732 0 0 0 4.744-.014l29.094-16.972v-10.924L155.36 150.64a1.29 1.29 0 0 1-1.276.003Z"/><path fill="url(#l)" d="m164.336 90.333-9.759 5.681v18.353l6.992-3.787v-5.535c0-2.622 3.641-3.933 3.641-3.933 6.992-2.476 11.944.583 11.944.583l9.177-5.244.145-18.79-9.322 5.244s-4.515-2.33-7.283-2.04c-2.767.292-5.681 1.894-5.681 1.894l.146 7.574Z"/><path fill="#000" stroke="#B9B9B9" stroke-width=".215" d="m164.19 109.123-2.621 1.457v-4.028l2.621 2.571Z"/><path fill="url(#m)" stroke="#B9B9B9" stroke-width=".215" d="m164.045 120.339-9.468-5.826 9.759-5.39-2.476-2.185s-2.039-3.35 3.35-5.826c5.389-2.476 11.944.583 11.944.583l9.031-5.244 28.085 16.437c1.569.918 1.559 3.189-.017 4.094l-27.922 16.029-9.031-5.389s6.117-6.118-2.185-8.303c-8.303-2.185-11.07 1.02-11.07 1.02Z"/><path fill="#1A1A1A" stroke="#B9B9B9" stroke-width=".215" d="M186.185 143.936v-10.779s26.655-15.246 27.384-15.731c.728-.486 1.019-2.185 1.019-2.185l.131 10.835a2.15 2.15 0 0 1-1.07 1.885l-27.464 15.975Z"/></g><defs><linearGradient id="b" x1="157.636" x2="154.577" y1="54.064" y2="86.255" gradientUnits="userSpaceOnUse"><stop stop-color="#fff"/><stop offset="1" stop-color="#919191"/></linearGradient><linearGradient id="c" x1="127.266" x2="127.266" y1="68.193" y2="81.594" gradientUnits="userSpaceOnUse"><stop stop-color="#6A6A6A"/><stop offset="1" stop-color="#1A1A1A"/></linearGradient><linearGradient id="d" x1="137.317" x2="137.317" y1="78.681" y2="92.093" gradientUnits="userSpaceOnUse"><stop stop-color="#6A6A6A"/><stop offset="1" stop-color="#1A1A1A"/></linearGradient><linearGradient id="e" x1="149.843" x2="149.843" y1="80.865" y2="96.014" gradientUnits="userSpaceOnUse"><stop stop-color="#6A6A6A"/><stop offset="1" stop-color="#1A1A1A"/></linearGradient><linearGradient id="f" x1="159.311" x2="159.311" y1="80.865" y2="96.014" gradientUnits="userSpaceOnUse"><stop stop-color="#6A6A6A"/><stop offset="1" stop-color="#1A1A1A"/></linearGradient><linearGradient id="g" x1="169.395" x2="169.395" y1="71.661" y2="82.905" gradientUnits="userSpaceOnUse"><stop stop-color="#6A6A6A"/><stop offset="1" stop-color="#1A1A1A"/></linearGradient><linearGradient id="h" x1="181.815" x2="181.815" y1="68.484" y2="82.759" gradientUnits="userSpaceOnUse"><stop stop-color="#6A6A6A"/><stop offset="1" stop-color="#1A1A1A"/></linearGradient><linearGradient id="i" x1="144.381" x2="130.398" y1="81.739" y2="107.375" gradientUnits="userSpaceOnUse"><stop stop-color="#D8D8D8"/><stop offset=".548" stop-opacity="0"/></linearGradient><linearGradient id="j" x1="142.487" x2="118.891" y1="101.112" y2="150.927" gradientUnits="userSpaceOnUse"><stop offset=".098" stop-color="#0E0E0E"/><stop offset=".888" stop-color="#E0E0E0"/></linearGradient><linearGradient id="k" x1="149.189" x2="148.312" y1="102.575" y2="161.7" gradientUnits="userSpaceOnUse"><stop offset=".182" stop-color="#030303"/><stop offset=".88" stop-color="#fff"/></linearGradient><linearGradient id="l" x1="164.627" x2="175.261" y1="82.905" y2="103.151" gradientUnits="userSpaceOnUse"><stop stop-color="#767676"/><stop offset=".598" stop-color="#131313" stop-opacity="0"/></linearGradient><linearGradient id="m" x1="168.706" x2="191.72" y1="98.199" y2="150.636" gradientUnits="userSpaceOnUse"><stop/><stop offset="1" stop-color="#D9D9D9"/></linearGradient><clipPath id="a"><path fill="#fff" d="M0 0h300v240H0z"/></clipPath></defs></svg>